<svg width="141" height="128" viewBox="0 0 141 128" fill="none" xmlns="http://www.w3.org/2000/svg">
<g clip-path="url(#clip0_18_11623)">
<path fill-rule="evenodd" clip-rule="evenodd" d="M52.6157 22.6491L22.2372 0.5V61.2177L70.2499 96.2352L118.281 61.2177V0.5L87.9028 22.6491L70.2499 9.78064L52.6157 22.6491Z" fill="#006FFF"/>
<path fill-rule="evenodd" clip-rule="evenodd" d="M118.281 54.573L70.25 89.5722V96.2352L118.281 61.2177V54.573Z" fill="#0050FB"/>
<path fill-rule="evenodd" clip-rule="evenodd" d="M22.2372 0.5L70.2499 35.4992V96.2352L22.2372 61.2177V0.5Z" fill="#011AFD"/>
<path fill-rule="evenodd" clip-rule="evenodd" d="M22.2372 54.573L70.2499 89.5722V96.2352L22.2372 61.2177V54.573Z" fill="#0607D3"/>
<path fill-rule="evenodd" clip-rule="evenodd" d="M83.3275 19.3176L65.7303 32.2043L70.25 35.4993L87.9028 22.6491L83.3275 19.3176Z" fill="#0050FB"/>
<path fill-rule="evenodd" clip-rule="evenodd" d="M102.129 32.845L95.238 37.8788V57.5567L102.129 52.5411V32.845ZM93.4598 39.1602L86.5505 44.194V63.8902L93.4598 58.8563V39.1602Z" fill="white"/>
<path fill-rule="evenodd" clip-rule="evenodd" d="M39.2047 33.394L53.2825 43.6448V77.1979L39.2047 66.9288V33.394Z" fill="white"/>
<path d="M140.25 45.219L118.281 61.8216L70.5464 96.6194L70.25 96.8208L69.9721 96.6194L22.2373 61.8216L0.25 45.219L22.2373 60.6318L70.25 95.631L118.281 60.6318L140.25 45.219Z" fill="#0607D3"/>
<path fill-rule="evenodd" clip-rule="evenodd" d="M0.935364 127.354H2.7877V112.948L11.3826 124.205L19.996 112.874V127.354H22.0706V110.33H19.7181L11.5493 121.167L3.45458 110.33H0.935364V127.427V127.354ZM27.4794 127.354H41.0015V125.523H29.7393V119.666H39.5197V117.835H29.7393V112.161H41.0015V110.33H27.4794V127.427V127.354ZM50.0595 127.354H52.2267V112.014H59.2471V110.184H43.0391V112.014H50.0595V127.354V127.354ZM62.5442 127.354H64.7115V121.496H69.8239L76.1034 127.354H78.9745L72.4913 121.496H72.6024C73.4118 121.6 74.2343 121.532 75.0145 121.295C75.7947 121.058 76.5144 120.658 77.125 120.123C77.7356 119.588 78.2228 118.93 78.5539 118.192C78.885 117.455 79.0522 116.656 79.0442 115.85C79.0362 115.043 78.8531 114.248 78.5074 113.517C78.1617 112.787 77.6614 112.138 77.0403 111.615C76.4192 111.091 75.6917 110.706 74.9069 110.484C74.1222 110.263 73.2984 110.21 72.4913 110.33H62.5628V127.427L62.5442 127.354ZM64.7115 119.684V112.161H72.4913C73.007 112.151 73.5196 112.242 73.9998 112.428C74.48 112.614 74.9184 112.892 75.29 113.245C75.6616 113.599 75.959 114.021 76.1653 114.488C76.3716 114.956 76.4827 115.458 76.4924 115.968C76.4899 116.47 76.3874 116.967 76.1906 117.431C75.9938 117.894 75.7066 118.314 75.3454 118.668C74.9842 119.021 74.556 119.301 74.0854 119.491C73.6147 119.681 73.1108 119.778 72.6024 119.775L64.7115 119.684Z" fill="#011AFD"/>
<path fill-rule="evenodd" clip-rule="evenodd" d="M85.6614 120.764C85.6782 121.707 85.891 122.636 86.2865 123.495C86.682 124.353 87.2517 125.122 87.9603 125.753C88.669 126.385 89.5014 126.866 90.406 127.166C91.3107 127.467 92.2681 127.58 93.219 127.5C94.9848 127.476 96.7165 127.016 98.2574 126.164V124.333C96.7736 125.292 95.0468 125.818 93.2746 125.853C92.5761 125.894 91.8763 125.794 91.2184 125.558C90.5605 125.323 89.9583 124.957 89.4489 124.483C88.9394 124.009 88.5335 123.437 88.256 122.802C87.9786 122.167 87.8354 121.483 87.8354 120.791C87.8354 120.1 87.9786 119.416 88.256 118.781C88.5335 118.146 88.9394 117.574 89.4489 117.1C89.9583 116.626 90.5605 116.26 91.2184 116.024C91.8763 115.789 92.5761 115.688 93.2746 115.73C95.0576 115.769 96.7949 116.295 98.2944 117.249V115.419C96.7501 114.575 95.0205 114.116 93.256 114.083C92.3036 114.002 91.3447 114.116 90.4388 114.418C89.533 114.719 88.6997 115.202 87.9907 115.836C87.2818 116.469 86.7124 117.24 86.318 118.101C85.9237 118.961 85.7128 119.893 85.6985 120.837L85.6614 120.764ZM83.0681 127.427C83.3089 127.427 83.5397 127.332 83.71 127.164C83.8802 126.996 83.9758 126.768 83.9758 126.53C83.9758 126.287 83.8782 126.054 83.7045 125.883C83.5308 125.711 83.2953 125.615 83.0496 125.615C82.804 125.615 82.5684 125.711 82.3947 125.883C82.221 126.054 82.1235 126.287 82.1235 126.53C82.1235 126.768 82.2191 126.996 82.3893 127.164C82.5595 127.332 82.7904 127.427 83.0311 127.427H83.0681ZM102.407 127.427H104.537V109.598H102.407V127.427ZM109.26 123.272C109.423 124.548 110.083 125.711 111.1 126.515C112.117 127.318 113.41 127.698 114.706 127.573C116.221 127.54 117.719 127.249 119.133 126.713L119.244 127.427H121.226V114.229H119.096V124.974C117.675 125.506 116.171 125.791 114.651 125.816C114.259 125.854 113.863 125.814 113.486 125.7C113.11 125.586 112.76 125.4 112.457 125.151C112.154 124.903 111.904 124.597 111.721 124.253C111.537 123.908 111.425 123.531 111.39 123.143V114.101H109.26V123.143V123.272ZM126.098 126.255C126.418 126.237 126.739 126.281 127.043 126.383C128.723 127.146 130.547 127.551 132.396 127.573C134.25 127.618 136.046 126.933 137.39 125.67C138.734 124.407 139.516 122.669 139.565 120.837C139.594 119.919 139.43 119.005 139.084 118.153C138.738 117.301 138.217 116.529 137.554 115.886C136.891 115.242 136.1 114.742 135.232 114.416C134.363 114.09 133.435 113.945 132.507 113.991C131.046 114.023 129.6 114.295 128.228 114.796V109.305H126.098V126.219V126.255ZM128.228 125.029V116.554C129.601 116.061 131.047 115.795 132.507 115.767C133.17 115.754 133.828 115.875 134.441 116.123C135.055 116.371 135.61 116.74 136.074 117.208C136.537 117.676 136.898 118.233 137.136 118.845C137.373 119.456 137.481 120.11 137.453 120.764C137.453 121.419 137.322 122.068 137.068 122.673C136.813 123.279 136.441 123.828 135.971 124.291C135.501 124.754 134.943 125.12 134.33 125.369C133.716 125.618 133.059 125.745 132.396 125.743C130.972 125.713 129.563 125.447 128.228 124.956V125.029Z" fill="#006FFF"/>
</g>
<defs>
<clipPath id="clip0_18_11623">
<rect width="140" height="127" fill="white" transform="translate(0.25 0.5)"/>
</clipPath>
</defs>
</svg>
