<svg width="140" height="128" viewBox="0 0 140 128" fill="none" xmlns="http://www.w3.org/2000/svg">
<g clip-path="url(#clip0_14_1945)">
<path fill-rule="evenodd" clip-rule="evenodd" d="M52.3657 22.6491L21.9872 0.5V61.2177L69.9999 96.2352L118.031 61.2177V0.5L87.6528 22.6491L69.9999 9.78064L52.3657 22.6491Z" fill="#006FFF"/>
<path fill-rule="evenodd" clip-rule="evenodd" d="M118.031 54.5729L70 89.572V96.235L118.031 61.2176V54.5729Z" fill="#0050FB"/>
<path fill-rule="evenodd" clip-rule="evenodd" d="M21.9872 0.5L69.9999 35.4992V96.2352L21.9872 61.2177V0.5Z" fill="#011AFD"/>
<path fill-rule="evenodd" clip-rule="evenodd" d="M21.9872 54.5729L69.9999 89.572V96.235L21.9872 61.2176V54.5729Z" fill="#0607D3"/>
<path fill-rule="evenodd" clip-rule="evenodd" d="M83.0775 19.3175L65.4803 32.2042L70 35.4991L87.6528 22.649L83.0775 19.3175Z" fill="#0050FB"/>
<path fill-rule="evenodd" clip-rule="evenodd" d="M101.879 32.845L94.988 37.8788V57.5567L101.879 52.5411V32.845ZM93.2098 39.1602L86.3005 44.194V63.8902L93.2098 58.8563V39.1602Z" fill="white"/>
<path fill-rule="evenodd" clip-rule="evenodd" d="M38.9547 33.394L53.0325 43.6448V77.1979L38.9547 66.9288V33.394Z" fill="white"/>
<path d="M140 45.2191L118.031 61.8218L70.2964 96.6196L70 96.8209L69.7221 96.6196L21.9873 61.8218L0 45.2191L21.9873 60.6319L70 95.6311L118.031 60.6319L140 45.2191Z" fill="#0607D3"/>
<path fill-rule="evenodd" clip-rule="evenodd" d="M0.685364 127.354H2.5377V112.948L11.1326 124.205L19.746 112.874V127.354H21.8206V110.33H19.4681L11.2993 121.167L3.20458 110.33H0.685364V127.427V127.354ZM27.2294 127.354H40.7515V125.523H29.4893V119.666H39.2697V117.835H29.4893V112.161H40.7515V110.33H27.2294V127.427V127.354ZM49.8095 127.354H51.9767V112.014H58.9971V110.184H42.7891V112.014H49.8095V127.354ZM62.2942 127.354H64.4615V121.496H69.5739L75.8534 127.354H78.7245L72.2413 121.496H72.3524C73.1618 121.6 73.9843 121.532 74.7645 121.295C75.5447 121.058 76.2644 120.658 76.875 120.123C77.4856 119.588 77.9728 118.93 78.3039 118.192C78.635 117.455 78.8022 116.656 78.7942 115.85C78.7862 115.043 78.6031 114.248 78.2574 113.517C77.9117 112.787 77.4114 112.138 76.7903 111.615C76.1692 111.091 75.4417 110.706 74.6569 110.484C73.8722 110.263 73.0484 110.21 72.2413 110.33H62.3128V127.427L62.2942 127.354ZM64.4615 119.684V112.161H72.2413C72.757 112.151 73.2696 112.242 73.7498 112.428C74.23 112.614 74.6684 112.892 75.04 113.245C75.4116 113.599 75.709 114.021 75.9153 114.488C76.1216 114.956 76.2327 115.458 76.2424 115.968C76.2399 116.47 76.1374 116.967 75.9406 117.431C75.7438 117.894 75.4566 118.314 75.0954 118.668C74.7342 119.021 74.306 119.301 73.8354 119.491C73.3647 119.681 72.8608 119.778 72.3524 119.775L64.4615 119.684Z" fill="#011AFD"/>
<path fill-rule="evenodd" clip-rule="evenodd" d="M85.4114 120.764C85.4282 121.707 85.641 122.636 86.0365 123.495C86.432 124.353 87.0017 125.122 87.7103 125.753C88.419 126.385 89.2514 126.866 90.156 127.166C91.0607 127.467 92.0181 127.58 92.969 127.5C94.7348 127.476 96.4665 127.016 98.0074 126.164V124.333C96.5236 125.292 94.7968 125.818 93.0246 125.853C92.3261 125.894 91.6263 125.794 90.9684 125.558C90.3105 125.323 89.7083 124.957 89.1989 124.483C88.6894 124.009 88.2835 123.437 88.006 122.802C87.7286 122.167 87.5854 121.483 87.5854 120.791C87.5854 120.1 87.7286 119.416 88.006 118.781C88.2835 118.146 88.6894 117.574 89.1989 117.1C89.7083 116.626 90.3105 116.26 90.9684 116.024C91.6263 115.789 92.3261 115.688 93.0246 115.73C94.8076 115.769 96.5449 116.295 98.0444 117.249V115.419C96.5001 114.575 94.7705 114.116 93.006 114.083C92.0536 114.002 91.0947 114.116 90.1888 114.418C89.283 114.719 88.4497 115.202 87.7407 115.836C87.0318 116.469 86.4624 117.24 86.068 118.101C85.6737 118.961 85.4628 119.893 85.4485 120.837L85.4114 120.764ZM82.8181 127.427C83.0589 127.427 83.2897 127.332 83.46 127.164C83.6302 126.996 83.7258 126.768 83.7258 126.53C83.7258 126.287 83.6282 126.054 83.4545 125.883C83.2808 125.711 83.0453 125.615 82.7996 125.615C82.554 125.615 82.3184 125.711 82.1447 125.883C81.971 126.054 81.8735 126.287 81.8735 126.53C81.8735 126.768 81.9691 126.996 82.1393 127.164C82.3095 127.332 82.5404 127.427 82.7811 127.427H82.8181ZM102.157 127.427H104.287V109.598H102.157V127.427ZM109.01 123.272C109.173 124.548 109.833 125.711 110.85 126.515C111.867 127.318 113.16 127.698 114.456 127.573C115.971 127.54 117.469 127.249 118.883 126.713L118.994 127.427H120.976V114.229H118.846V124.974C117.425 125.506 115.921 125.791 114.401 125.816C114.009 125.854 113.613 125.814 113.236 125.7C112.86 125.586 112.51 125.4 112.207 125.151C111.904 124.903 111.654 124.597 111.471 124.253C111.287 123.908 111.175 123.531 111.14 123.143V114.101H109.01V123.143V123.272ZM125.848 126.255C126.168 126.237 126.489 126.281 126.793 126.383C128.473 127.146 130.297 127.551 132.146 127.573C134 127.618 135.796 126.933 137.14 125.67C138.484 124.407 139.266 122.669 139.315 120.837C139.344 119.919 139.18 119.005 138.834 118.153C138.488 117.301 137.967 116.529 137.304 115.886C136.641 115.242 135.85 114.742 134.982 114.416C134.113 114.09 133.185 113.945 132.257 113.991C130.796 114.023 129.35 114.295 127.978 114.796V109.305H125.848V126.219V126.255ZM127.978 125.029V116.554C129.351 116.061 130.797 115.795 132.257 115.767C132.92 115.754 133.578 115.875 134.191 116.123C134.805 116.371 135.36 116.74 135.824 117.208C136.287 117.676 136.648 118.233 136.886 118.845C137.123 119.456 137.231 120.11 137.203 120.764C137.203 121.419 137.072 122.068 136.818 122.673C136.563 123.279 136.191 123.828 135.721 124.291C135.251 124.754 134.693 125.12 134.08 125.369C133.466 125.618 132.809 125.745 132.146 125.743C130.722 125.713 129.313 125.447 127.978 124.956V125.029Z" fill="#006FFF"/>
</g>
<defs>
<clipPath id="clip0_14_1945">
<rect width="140" height="127" fill="white" transform="translate(0 0.5)"/>
</clipPath>
</defs>
</svg>
