<?xml version="1.0" encoding="utf-8"?>
<svg viewBox="0.103 0.125 109.906 22.611" xmlns="http://www.w3.org/2000/svg">
  <path d="M 10.241 7.053 C 9.286 7.053 8.577 7.47 8.012 8.364 C 7.41 9.316 7.105 10.648 7.105 12.325 C 7.105 14.154 7.393 15.555 7.962 16.49 C 8.504 17.383 9.24 17.815 10.214 17.815 C 11.05 17.815 11.792 17.38 12.36 16.556 C 12.918 15.747 13.378 14.343 13.848 12.02 C 13.473 10.303 12.951 8.966 12.332 8.157 C 11.755 7.403 11.091 7.053 10.241 7.053 Z" style="fill:#CF0A2C;" transform="matrix(1, 0, 0, 1, 0.084485, -0.968955)"/>
  <path d="M 6.813 1.094 L 16.058 1.094 C 19.802 1.094 22.85 4.112 22.85 7.821 L 22.85 16.978 C 22.85 20.686 19.802 23.705 16.058 23.705 L 6.813 23.705 C 3.066 23.705 0.019 20.686 0.019 16.978 L 0.019 7.821 C 0.019 4.112 3.066 1.094 6.813 1.094 Z M 19.784 18.384 C 20.117 17.803 20.253 17.083 20.253 15.897 L 20.253 15.178 L 18.642 15.178 L 18.634 15.279 C 18.602 15.671 18.353 16.068 17.941 16.068 C 17.626 16.068 17.373 15.953 17.166 15.715 C 16.918 15.432 16.694 15.092 16.468 14.476 C 17.108 12.324 19.084 5.431 19.084 5.431 L 15.336 5.431 C 15.336 5.431 14.989 7.047 14.677 8.518 C 14.661 8.482 14.645 8.446 14.629 8.412 C 14.317 7.752 13.818 7.017 13.263 6.5 C 12.298 5.601 11.162 5.163 9.791 5.163 C 7.899 5.163 6.298 5.856 5.033 7.224 C 3.773 8.583 3.109 10.328 3.109 12.267 C 3.109 14.428 3.74 16.202 4.986 17.539 C 6.285 18.936 7.838 19.587 9.873 19.587 C 11.058 19.587 12.19 19.238 13.239 18.551 C 13.917 18.108 14.536 17.494 15.12 16.696 C 15.365 17.483 15.613 18.021 15.909 18.424 C 16.387 19.073 17.104 19.446 17.875 19.446 C 18.677 19.446 19.409 19.039 19.784 18.384 Z" clip-rule="evenodd" fill-rule="evenodd" style="fill:#CF0A2C;" transform="matrix(1, 0, 0, 1, 0.084485, -0.968955)"/>
  <path d="M 31.67 3.796 C 33.285 3.796 34.021 4.603 34.28 5.758 L 35.453 10.989 L 34.199 10.989 C 33.914 10.989 33.63 10.763 33.568 10.486 L 33.331 9.422 L 30.009 9.422 L 29.772 10.486 C 29.711 10.763 29.427 10.989 29.141 10.989 L 27.887 10.989 L 29.06 5.758 C 29.319 4.603 30.152 3.796 31.67 3.796 Z M 30.75 6.096 L 30.337 7.948 L 33.003 7.948 L 32.59 6.096 C 32.523 5.796 32.288 5.339 31.67 5.339 C 31.053 5.339 30.817 5.796 30.75 6.096 Z" clip-rule="evenodd" fill-rule="evenodd" style="fill:#CF0A2C;" transform="matrix(1, 0, 0, 1, 0.084485, -0.968955)"/>
  <path d="M 38.543 5.543 L 41.339 5.543 L 41.339 10.989 L 43.07 10.989 L 43.07 3.966 L 37.85 3.966 C 37.279 3.966 36.811 4.428 36.811 4.994 L 36.811 8.543 C 36.811 9.018 36.591 9.32 36.207 9.396 L 35.851 9.48 L 36.173 10.989 L 36.502 10.989 C 37.687 10.989 38.543 10.116 38.543 8.631 L 38.543 5.543 Z" style="fill:#CF0A2C;" transform="matrix(1, 0, 0, 1, 0.084485, -0.968955)"/>
  <path d="M 57.482 3.966 L 58.112 3.966 C 60.252 3.966 61.589 5.41 61.589 7.477 C 61.589 9.544 60.252 10.989 58.112 10.989 L 57.482 10.989 L 57.482 11.327 C 57.482 11.608 57.249 11.84 56.962 11.84 L 55.751 11.84 L 55.751 10.989 L 55.12 10.989 C 52.981 10.989 51.643 9.544 51.643 7.477 C 51.643 5.41 52.981 3.966 55.12 3.966 L 55.751 3.966 L 55.751 3.663 C 55.751 3.38 55.984 3.15 56.27 3.15 L 57.482 3.15 L 57.482 3.966 Z M 55.12 9.438 C 53.935 9.438 53.375 8.695 53.375 7.477 C 53.375 6.26 53.935 5.517 55.12 5.517 L 55.751 5.517 L 55.751 9.438 L 55.12 9.438 Z M 58.112 9.438 L 57.482 9.438 L 57.482 5.517 L 58.112 5.517 C 59.298 5.517 59.857 6.26 59.857 7.477 C 59.857 8.695 59.298 9.438 58.112 9.438 Z" clip-rule="evenodd" fill-rule="evenodd" style="fill:#CF0A2C;" transform="matrix(1, 0, 0, 1, 0.084485, -0.968955)"/>
  <path d="M 45.957 5.746 L 48.441 5.746 C 50.133 5.746 51.086 6.873 51.086 8.368 C 51.086 9.863 49.95 10.989 48.441 10.989 L 44.745 10.989 C 44.46 10.989 44.225 10.757 44.225 10.475 L 44.225 3.966 L 45.957 3.966 L 45.957 5.746 Z M 45.957 9.412 L 48.441 9.412 C 48.863 9.412 49.356 9.037 49.356 8.368 C 49.356 7.698 48.863 7.324 48.441 7.324 L 45.957 7.324 L 45.957 9.412 Z" clip-rule="evenodd" fill-rule="evenodd" style="fill:#CF0A2C;" transform="matrix(1, 0, 0, 1, 0.084485, -0.968955)"/>
  <path d="M 65.435 3.796 C 67.05 3.796 67.786 4.603 68.045 5.758 L 69.217 10.989 L 67.964 10.989 C 67.679 10.989 67.394 10.763 67.333 10.486 L 67.096 9.422 L 63.774 9.422 L 63.537 10.486 C 63.477 10.763 63.192 10.989 62.906 10.989 L 61.652 10.989 L 62.825 5.758 C 63.084 4.603 63.917 3.796 65.435 3.796 Z M 64.515 6.096 L 64.103 7.948 L 66.768 7.948 L 66.355 6.096 C 66.288 5.796 66.053 5.339 65.435 5.339 C 64.818 5.339 64.583 5.796 64.515 6.096 Z" clip-rule="evenodd" fill-rule="evenodd" style="fill:#CF0A2C;" transform="matrix(1, 0, 0, 1, 0.084485, -0.968955)"/>
  <path d="M 78.582 15.934 C 78.582 16.496 78.386 16.902 78.08 17.2 C 78.524 17.542 78.824 18.032 78.824 18.659 C 78.824 19.904 77.944 20.843 76.618 20.843 L 72.119 20.842 C 71.833 20.842 71.599 20.611 71.599 20.329 L 71.599 14.333 C 71.599 14.05 71.833 13.82 72.119 13.82 L 76.351 13.82 C 77.608 13.82 78.582 14.69 78.582 15.934 Z M 76.349 15.277 C 76.579 15.277 76.894 15.533 76.894 15.969 C 76.894 16.409 76.579 16.634 76.349 16.662 L 73.296 16.662 L 73.296 15.277 L 76.349 15.277 Z M 76.488 19.386 L 73.296 19.386 L 73.296 18.001 L 76.488 18.001 C 76.718 18.029 77.032 18.253 77.032 18.693 C 77.032 19.129 76.718 19.386 76.488 19.386 Z" clip-rule="evenodd" fill-rule="evenodd" style="fill:#CF0A2C;" transform="matrix(1, 0, 0, 1, 0.084485, -0.968955)"/>
  <path d="M 63.01 17.331 C 63.01 15.167 64.505 13.658 66.646 13.658 L 67.238 13.658 C 69.379 13.658 70.874 15.167 70.874 17.331 C 70.874 19.494 69.379 21.004 67.238 21.004 L 66.646 21.004 C 64.505 21.004 63.01 19.494 63.01 17.331 Z M 66.75 15.108 C 65.557 15.108 64.879 16.072 64.879 17.331 C 64.879 18.59 65.557 19.554 66.75 19.554 L 67.134 19.554 C 68.326 19.554 69.004 18.59 69.004 17.331 C 69.004 16.072 68.326 15.108 67.134 15.108 L 66.75 15.108 Z" clip-rule="evenodd" fill-rule="evenodd" style="fill:#CF0A2C;" transform="matrix(1, 0, 0, 1, 0.084485, -0.968955)"/>
  <path d="M 34.34 13.82 L 34.568 14.882 C 34.628 15.165 34.912 15.396 35.198 15.396 L 36.811 15.396 L 36.811 20.842 L 38.543 20.842 L 38.543 15.396 L 40.106 15.396 C 40.391 15.396 40.674 15.165 40.735 14.882 L 40.963 13.82 L 34.34 13.82 Z" style="fill:#CF0A2C;" transform="matrix(1, 0, 0, 1, 0.084485, -0.968955)"/>
  <path d="M 92.652 13.82 L 92.652 16.608 L 89.284 16.608 L 89.284 13.82 L 87.552 13.82 L 87.552 20.842 L 89.284 20.842 L 89.284 18.114 L 92.652 18.114 L 92.652 20.842 L 94.383 20.842 L 94.383 13.82 L 92.652 13.82 Z" style="fill:#CF0A2C;" transform="matrix(1, 0, 0, 1, 0.084485, -0.968955)"/>
  <path d="M 51.877 13.65 C 53.493 13.65 54.227 14.457 54.487 15.613 L 55.66 20.843 L 54.407 20.843 C 54.121 20.843 53.836 20.617 53.775 20.341 L 53.538 19.276 L 50.218 19.276 L 49.981 20.341 C 49.919 20.617 49.636 20.843 49.349 20.843 L 48.096 20.843 L 49.269 15.613 C 49.527 14.457 50.36 13.65 51.877 13.65 Z M 50.958 15.949 L 50.545 17.802 L 53.21 17.802 L 52.798 15.951 C 52.73 15.65 52.495 15.192 51.877 15.192 C 51.259 15.192 51.025 15.65 50.958 15.949 Z" clip-rule="evenodd" fill-rule="evenodd" style="fill:#CF0A2C;" transform="matrix(1, 0, 0, 1, 0.084485, -0.968955)"/>
  <path d="M 83.005 13.65 C 84.62 13.65 85.355 14.457 85.615 15.613 L 86.789 20.843 L 85.534 20.843 C 85.249 20.843 84.965 20.617 84.903 20.341 L 84.666 19.276 L 81.345 19.276 L 81.107 20.341 C 81.047 20.617 80.762 20.843 80.477 20.843 L 79.222 20.843 L 80.395 15.613 C 80.655 14.457 81.486 13.65 83.005 13.65 Z M 82.085 15.949 L 81.672 17.802 L 84.337 17.802 L 83.925 15.951 C 83.858 15.65 83.622 15.192 83.005 15.192 C 82.387 15.192 82.153 15.65 82.085 15.949 Z" clip-rule="evenodd" fill-rule="evenodd" style="fill:#CF0A2C;" transform="matrix(1, 0, 0, 1, 0.084485, -0.968955)"/>
  <path d="M 34.878 20.823 L 34.878 20.843 L 31.496 20.843 C 29.448 20.843 28.018 19.399 28.018 17.331 C 28.018 15.263 29.448 13.819 31.496 13.819 L 34.061 13.819 L 33.81 14.896 C 33.746 15.172 33.46 15.396 33.174 15.396 L 31.496 15.396 C 30.401 15.396 29.749 16.205 29.749 17.331 C 29.749 18.457 30.401 19.266 31.496 19.266 L 33.996 19.266 C 34.281 19.266 34.567 19.491 34.632 19.767 L 34.878 20.823 Z" style="fill:#CF0A2C;" transform="matrix(1, 0, 0, 1, 0.084485, -0.968955)"/>
  <path d="M 41.907 13.82 L 45.603 13.819 C 47.112 13.819 48.249 14.947 48.249 16.441 C 48.249 17.935 47.296 19.061 45.603 19.061 L 43.119 19.061 L 43.119 20.843 L 41.388 20.843 L 41.388 14.334 C 41.388 14.052 41.621 13.82 41.907 13.82 Z M 43.119 17.485 L 45.603 17.485 C 46.025 17.485 46.519 17.11 46.519 16.441 C 46.519 15.771 46.025 15.398 45.603 15.398 L 43.119 15.398 L 43.119 17.485 Z" clip-rule="evenodd" fill-rule="evenodd" style="fill:#CF0A2C;" transform="matrix(1, 0, 0, 1, 0.084485, -0.968955)"/>
  <path d="M 109.059 19.36 L 105.33 19.36 L 105.33 18.011 L 109.384 18.011 L 109.384 16.657 L 105.33 16.657 L 105.33 15.302 L 109.059 15.302 C 109.366 15.302 109.609 15.168 109.694 14.801 L 109.925 13.82 L 104.118 13.82 C 103.833 13.82 103.599 14.05 103.599 14.334 L 103.599 20.328 C 103.599 20.611 103.833 20.843 104.118 20.843 L 109.925 20.843 L 109.694 19.862 C 109.609 19.494 109.366 19.36 109.059 19.36 Z" style="fill:#CF0A2C;" transform="matrix(1, 0, 0, 1, 0.084485, -0.968955)"/>
  <path d="M 95.57 20.842 L 95.57 13.82 L 97.302 13.82 L 97.302 18.453 L 100.301 14.233 C 100.471 14.006 100.841 13.82 101.129 13.82 L 102.412 13.82 L 102.412 20.842 L 100.681 20.842 L 100.681 16.209 L 97.68 20.428 C 97.512 20.656 97.14 20.842 96.854 20.842 L 95.57 20.842 Z" style="fill:#CF0A2C;" transform="matrix(1, 0, 0, 1, 0.084485, -0.968955)"/>
  <path d="M 60.882 17.294 L 63.298 13.82 L 61.708 13.82 C 61.364 13.82 61.123 13.923 60.91 14.253 L 59.623 16.255 L 59.392 16.255 L 58.104 14.253 C 57.893 13.923 57.652 13.82 57.306 13.82 L 55.665 13.82 L 58.133 17.368 L 55.717 20.842 L 57.306 20.842 C 57.652 20.842 57.893 20.74 58.104 20.409 L 59.392 18.407 L 59.623 18.407 L 60.91 20.409 C 61.123 20.74 61.364 20.842 61.708 20.842 L 63.349 20.842 L 60.882 17.294 Z" style="fill:#CF0A2C;" transform="matrix(1, 0, 0, 1, 0.084485, -0.968955)"/>
</svg>