<svg width="157" height="42" viewBox="0 0 157 42" fill="none" xmlns="http://www.w3.org/2000/svg">
<path d="M13.4924 29.8102V13.2695H16.8507V19.7869H23.4935V13.2695H26.8519V29.8102H23.4935V22.9828H16.8507V29.8102H13.4924ZM29.1842 13.2695H39.333V16.4655H32.5352V19.7057H38.0192V22.9016H32.5426V26.5921H39.333V29.8102H29.1842V13.2695ZM44.8392 16.4655V21.4107H45.1714C46.7583 21.4107 48.4706 20.7612 48.4706 18.9159C48.4706 17.2921 47.083 16.4655 45.5995 16.4655H44.8392ZM41.4661 29.8102V13.2695H45.5773C48.9135 13.2695 51.7994 15.4026 51.7994 18.9381C51.7994 22.54 48.7142 24.6436 45.4002 24.6436H44.8171V29.8102H41.4661ZM56.8702 16.4655V29.8102H53.5192V13.2695H62.059V16.4655H56.8702ZM65.2475 21.5657C65.2446 22.2845 65.3838 22.9967 65.657 23.6616C65.9303 24.3264 66.3323 24.9306 66.8399 25.4396C67.3474 25.9485 67.9506 26.3521 68.6147 26.6272C69.2787 26.9022 69.9906 27.0433 70.7094 27.0424C71.4302 27.0431 72.1439 26.9006 72.8091 26.6231C73.4744 26.3456 74.0778 25.9386 74.5844 25.4259C75.6001 24.3977 76.1702 23.011 76.1713 21.5657C76.1788 20.1485 75.6516 18.7807 74.6951 17.735C74.1894 17.1938 73.5764 16.7639 72.8952 16.4729C72.214 16.1819 71.4796 16.0361 70.7389 16.0448C69.9971 16.0359 69.2616 16.1817 68.5792 16.4727C67.8968 16.7637 67.2825 17.1936 66.7754 17.735C65.8214 18.7822 65.2946 20.1491 65.2992 21.5657M61.9482 21.5657C61.9351 20.3623 62.1807 19.17 62.6684 18.0698C63.1561 16.9695 63.8746 15.987 64.7751 15.1886C66.4065 13.7169 68.5128 12.8812 70.7094 12.834C72.9181 12.8566 75.0442 13.6771 76.6954 15.1443C77.5959 15.9427 78.3144 16.9253 78.8021 18.0255C79.2898 19.1258 79.5354 20.318 79.5223 21.5214C79.5286 22.6947 79.2918 23.8565 78.8269 24.9338C78.362 26.011 77.6789 26.9803 76.8208 27.7805C75.1658 29.3373 72.9816 30.2078 70.7094 30.2162C68.4373 30.2078 66.253 29.3373 64.598 27.7805C63.7392 26.9808 63.0557 26.0117 62.5907 24.9343C62.1257 23.857 61.8893 22.6948 61.8966 21.5214M84.2534 16.4359V29.8102H80.8951V13.2695H90.1287V16.4655L84.2534 16.4359ZM123.395 21.8683L122.007 18.9676L120.605 21.8683H123.395ZM124.804 24.924H119.187L116.818 29.8102H113.209L122.066 12L130.857 29.8102H127.166L124.804 24.924ZM131.381 29.8102V13.2695H134.739V19.7869H141.382V13.2695H144.74V29.8102H141.382V22.9828H134.739V29.8102H131.381ZM150.165 29.8102V16.4581H146.726V13.2695H157V16.4655H153.524V29.8102H150.165ZM0 17.5578V13.6829C1.17784 13.1212 2.46676 12.8311 3.77166 12.834C5.88134 12.844 7.91306 13.6325 9.47713 15.0483C10.3554 15.8754 11.0484 16.8793 11.5102 17.9938C11.9721 19.1083 12.1923 20.3081 12.1564 21.514C12.1932 22.7073 11.9849 23.8954 11.5443 25.0049C11.1038 26.1145 10.4404 27.1219 9.59522 27.965C8.06285 29.4298 6.02436 30.2467 3.90452 30.2457C2.54875 30.2554 1.21021 29.9417 0 29.3304V25.485C1.08154 26.4239 2.45118 26.9655 3.88238 27.0202C5.02677 26.9986 6.12727 26.576 6.99192 25.826C7.85657 25.076 8.43049 24.0463 8.61356 22.9164H1.8969V19.7869H8.61356C8.36055 18.6951 7.7383 17.7243 6.85203 17.0384C5.96576 16.3525 4.86982 15.9937 3.74952 16.0226C2.35177 16.0479 1.01414 16.5956 0 17.5578Z" fill="#E31E24"/>
<path d="M96.5427 21.8905L95.1551 18.9898L93.7527 21.8905H96.5427ZM97.9525 24.9462H92.3356L89.9663 29.8324H86.357L95.2141 12.0222L104.005 29.8324H100.314L97.9525 24.9462Z" fill="#E31E24"/>
<path d="M108.921 16.4728V21.4181H109.253C110.84 21.4181 112.552 20.7685 112.552 18.9233C112.552 17.2995 111.164 16.4728 109.681 16.4728H108.921ZM105.547 29.8176V13.2769H109.659C112.995 13.2769 115.881 15.41 115.881 18.9455C115.881 22.5474 112.796 24.6509 109.481 24.6509H108.898V29.8176H105.547Z" fill="#E31E24"/>
</svg>
