<?xml version="1.0" encoding="utf-8"?>
<svg viewBox="0.073 0.292 110 28.462" xmlns="http://www.w3.org/2000/svg">
  <mask id="mask0" mask-type="alpha" maskUnits="userSpaceOnUse" x="0" y="27" width="6" height="7">
    <path d="M0 27.5981 L5.29577 27.5981 L5.29577 33.4622 L0 33.4622 L0 27.5981 z" clip-rule="evenodd" fill-rule="evenodd" style="fill:white;"/>
  </mask>
  <path d="M 8.114 10.815 C 8.317 10.315 8.429 9.76 8.429 9.167 C 8.429 6.714 6.576 5.02 4.17 5.02 L 0.411 5.02 L 0.411 18.314 L 2.503 18.314 L 2.503 13.222 L 4.188 13.222 C 4.818 13.222 5.392 13.13 5.91 12.926 C 6.428 12.722 6.873 12.444 7.244 12.093 C 7.614 11.741 7.91 11.315 8.114 10.815 Z M 4.448 11.037 L 2.503 11.037 L 2.503 7.353 L 4.484 7.353 C 5.022 7.353 5.466 7.538 5.799 7.89 C 6.132 8.242 6.299 8.686 6.299 9.204 C 6.299 9.76 6.114 10.204 5.762 10.538 C 5.411 10.87 4.966 11.037 4.448 11.037 Z" clip-rule="evenodd" fill-rule="evenodd" style="fill:#50287D;" transform="matrix(1, 0, 0, 1, 0.084485, -0.968955)"/>
  <path d="M 22.509 12.407 L 27.027 12.407 L 27.027 8.926 L 29.045 8.926 L 29.045 18.314 L 27.027 18.314 L 27.027 14.555 L 22.509 14.555 L 22.509 18.314 L 20.491 18.314 L 20.491 8.926 L 22.509 8.926 L 22.509 12.407 Z" style="fill:#50287D;" transform="matrix(1, 0, 0, 1, 0.084485, -0.968955)"/>
  <path d="M 39.228 15.314 C 38.969 15.648 37.987 16.555 36.321 16.555 C 34.298 16.555 33.489 15.074 33.396 14.351 L 40.469 14.351 C 40.506 14.129 40.524 13.889 40.524 13.611 C 40.524 12.963 40.413 12.334 40.21 11.741 C 40.006 11.148 39.71 10.63 39.321 10.186 C 38.932 9.742 38.451 9.389 37.896 9.13 C 37.34 8.871 36.729 8.742 36.044 8.742 C 35.322 8.742 34.674 8.871 34.1 9.13 C 33.526 9.389 33.026 9.76 32.619 10.223 C 32.211 10.685 31.897 11.204 31.674 11.797 C 31.452 12.389 31.341 13.019 31.341 13.685 C 31.341 14.444 31.47 15.129 31.711 15.74 C 31.952 16.351 32.304 16.87 32.748 17.296 C 33.192 17.721 33.711 18.055 34.322 18.277 C 34.933 18.499 35.483 18.61 36.285 18.61 C 38.357 18.61 39.691 17.11 39.821 16.888 L 39.228 15.314 Z M 33.403 12.688 C 33.494 12.149 34.157 10.852 35.951 10.852 C 37.415 10.852 38.277 11.77 38.493 12.688 L 33.403 12.688 Z" clip-rule="evenodd" fill-rule="evenodd" style="fill:#50287D;" transform="matrix(1, 0, 0, 1, 0.084485, -0.968955)"/>
  <path d="M 17.011 15.314 C 16.751 15.648 15.769 16.555 14.104 16.555 C 12.08 16.555 11.271 15.074 11.178 14.351 L 18.251 14.351 C 18.288 14.129 18.307 13.889 18.307 13.611 C 18.307 12.963 18.196 12.334 17.992 11.741 C 17.789 11.148 17.492 10.63 17.103 10.186 C 16.715 9.742 16.233 9.389 15.678 9.13 C 15.122 8.871 14.511 8.742 13.826 8.742 C 13.104 8.742 12.456 8.871 11.882 9.13 C 11.308 9.389 10.808 9.76 10.401 10.223 C 9.993 10.685 9.679 11.204 9.456 11.797 C 9.234 12.389 9.123 13.019 9.123 13.685 C 9.123 14.444 9.253 15.129 9.493 15.74 C 9.734 16.351 10.085 16.87 10.53 17.296 C 10.975 17.721 11.493 18.055 12.104 18.277 C 12.715 18.499 13.266 18.61 14.067 18.61 C 16.139 18.61 17.474 17.11 17.603 16.888 L 17.011 15.314 Z M 11.185 12.688 C 11.276 12.149 11.939 10.852 13.734 10.852 C 15.197 10.852 16.06 11.77 16.275 12.688 L 11.185 12.688 Z" clip-rule="evenodd" fill-rule="evenodd" style="fill:#50287D;" transform="matrix(1, 0, 0, 1, 0.084485, -0.968955)"/>
  <path d="M 57.04 18.592 C 54.761 18.592 52.189 16.861 52.189 13.648 C 52.189 10.815 54.308 8.723 57.059 8.723 C 58.995 8.723 60.262 9.889 60.502 10.315 L 59.947 11.981 C 59.947 11.981 58.762 10.87 57.355 10.87 C 55.181 10.87 54.226 12.396 54.226 13.629 C 54.226 14.463 54.522 15.13 55.096 15.648 C 55.67 16.166 56.429 16.425 57.374 16.425 C 58.691 16.425 59.82 15.632 60.079 15.336 L 60.672 17.002 C 60.672 17.002 59.378 18.592 57.04 18.592 Z" style="fill:#50287D;" transform="matrix(1, 0, 0, 1, 0.084485, -0.968955)"/>
  <path d="M 46.966 18.592 C 44.687 18.592 42.115 16.861 42.115 13.648 C 42.115 10.815 44.234 8.723 46.985 8.723 C 48.921 8.723 50.188 9.889 50.429 10.315 L 49.873 11.981 C 49.873 11.981 48.688 10.87 47.281 10.87 C 45.107 10.87 44.152 12.396 44.152 13.629 C 44.152 14.463 44.448 15.13 45.022 15.648 C 45.596 16.166 46.355 16.425 47.3 16.425 C 48.617 16.425 49.746 15.632 50.006 15.336 L 50.598 17.002 C 50.598 17.002 49.305 18.592 46.966 18.592 Z" style="fill:#50287D;" transform="matrix(1, 0, 0, 1, 0.084485, -0.968955)"/>
  <path d="M 90.075 18.592 C 87.796 18.592 85.224 16.861 85.224 13.648 C 85.224 10.815 87.343 8.723 90.094 8.723 C 92.03 8.723 93.297 9.889 93.538 10.315 L 92.982 11.981 C 92.982 11.981 91.798 10.87 90.39 10.87 C 88.216 10.87 87.261 12.396 87.261 13.629 C 87.261 14.463 87.557 15.13 88.131 15.648 C 88.705 16.166 89.464 16.425 90.409 16.425 C 91.726 16.425 92.856 15.632 93.115 15.336 L 93.707 17.002 C 93.707 17.002 92.414 18.592 90.075 18.592 Z" style="fill:#50287D;" transform="matrix(1, 0, 0, 1, 0.084485, -0.968955)"/>
  <path d="M 69.776 17.332 L 69.776 18.314 L 71.702 18.314 L 71.702 8.927 L 69.742 8.927 L 69.742 9.879 C 69.742 9.879 68.625 8.686 66.799 8.686 C 64.729 8.686 62.128 10.05 62.128 13.648 C 62.128 16.849 64.593 18.573 66.943 18.573 C 68.752 18.573 69.776 17.332 69.776 17.332 Z M 67.091 16.389 C 65.074 16.389 64.128 14.876 64.128 13.648 C 64.128 12.045 65.336 10.852 67.091 10.852 C 68.142 10.852 69.07 11.245 69.702 11.957 L 69.702 15.273 C 69.702 15.273 68.884 16.389 67.091 16.389 Z" clip-rule="evenodd" fill-rule="evenodd" style="fill:#50287D;" transform="matrix(1, 0, 0, 1, 0.084485, -0.968955)"/>
  <path d="M 76.682 12.407 L 81.2 12.407 L 81.2 8.926 L 83.218 8.926 L 83.218 18.314 L 81.2 18.314 L 81.2 14.555 L 76.682 14.555 L 76.682 18.314 L 74.664 18.314 L 74.664 8.926 L 76.682 8.926 L 76.682 12.407 Z" style="fill:#50287D;" transform="matrix(1, 0, 0, 1, 0.084485, -0.968955)"/>
  <g style="mask:url(#mask0);" transform="matrix(1, 0, 0, 1, 0.073041, -4.707893)">
    <path d="M2.95195 33.4622 C2.55285 33.4622 2.17405 33.3928 1.815 33.2532 C1.45595 33.1136 1.1471 32.9142 0.877744 32.655 C0.608385 32.3955 0.398821 32.0861 0.239179 31.7273 C0.0798205 31.368 0 30.9692 0 30.53 C0 30.0917 0.0798205 29.6929 0.239179 29.3335 C0.398821 28.9748 0.608385 28.6654 0.877744 28.4059 C1.1471 28.1467 1.45595 27.9473 1.815 27.8076 C2.17405 27.668 2.55285 27.5981 2.96182 27.5981 C3.23118 27.5981 3.49038 27.628 3.72985 27.6878 C3.96903 27.7479 4.18846 27.8274 4.38815 27.9275 C4.58756 28.0268 4.75708 28.1368 4.89697 28.2663 C5.03631 28.396 5.14603 28.5258 5.22613 28.6654 L4.99654 29.3539 C4.90656 29.2241 4.78697 29.1045 4.64736 28.9844 C4.50803 28.8648 4.3481 28.7655 4.17887 28.6752 C4.00908 28.5858 3.82969 28.5162 3.63 28.4657 C3.43059 28.4158 3.23118 28.3864 3.02162 28.3864 C2.68259 28.3864 2.37346 28.4363 2.09423 28.5356 C1.815 28.6358 1.57554 28.7754 1.37613 28.9649 C1.17672 29.1544 1.02723 29.3736 0.917513 29.6331 C0.807795 29.8923 0.757872 30.191 0.757872 30.5201 C0.757872 30.8493 0.817949 31.1488 0.927385 31.4182 C1.0371 31.687 1.19674 31.9064 1.39615 32.0861 C1.59556 32.2657 1.83503 32.4054 2.11426 32.5046 C2.39377 32.6051 2.70262 32.655 3.04164 32.655 C3.50054 32.655 3.90951 32.5647 4.26828 32.3752 C4.62733 32.1862 4.89697 31.9662 5.07608 31.707 L5.29579 32.3856 C5.02164 32.7125 4.21554 33.4622 2.95195 33.4622 z" style="fill:#50287D;"/>
  </g>
  <path d="M 10.531 23.959 L 10.531 24.737 L 8.617 24.737 L 8.617 29.604 L 7.879 29.604 L 7.879 24.737 L 5.944 24.737 L 5.944 23.959 L 10.531 23.959 Z" style="fill:#50287D;" transform="matrix(1, 0, 0, 1, 0.084485, -0.968955)"/>
  <path d="M 15.07 26.372 C 15.16 26.163 15.2 25.934 15.2 25.685 C 15.2 25.185 14.858 23.96 13.435 23.96 L 11.659 23.96 L 11.659 29.604 L 12.397 29.604 L 12.397 27.38 L 13.435 27.38 C 13.694 27.38 13.933 27.34 14.153 27.26 C 14.372 27.181 14.562 27.061 14.711 26.911 C 14.861 26.761 14.98 26.582 15.07 26.372 Z M 14.362 25.336 C 14.412 25.445 14.432 25.565 14.432 25.694 C 14.432 26.159 14.188 26.632 13.534 26.632 L 12.378 26.632 L 12.378 24.767 L 13.534 24.767 C 13.664 24.767 13.784 24.797 13.894 24.847 C 14.003 24.897 14.093 24.966 14.173 25.046 C 14.252 25.126 14.312 25.226 14.362 25.336 Z" clip-rule="evenodd" fill-rule="evenodd" style="fill:#50287D;" transform="matrix(1, 0, 0, 1, 0.084485, -0.968955)"/>
  <path d="M 16.188 29.604 L 16.727 28.288 L 19.53 28.288 L 20.058 29.604 L 20.856 29.604 L 18.532 23.959 L 17.714 23.959 L 15.39 29.604 L 16.188 29.604 Z M 18.123 24.906 L 19.2 27.509 L 17.046 27.509 L 18.123 24.906 Z" clip-rule="evenodd" fill-rule="evenodd" style="fill:#50287D;" transform="matrix(1, 0, 0, 1, 0.084485, -0.968955)"/>
  <path d="M 21.376 29.604 L 23.38 26.682 L 21.485 23.959 L 22.413 23.959 L 23.839 25.984 L 25.275 23.959 L 26.192 23.959 L 24.298 26.682 L 26.322 29.604 L 25.414 29.604 L 23.849 27.38 L 22.313 29.604 L 21.376 29.604 Z" style="fill:#50287D;" transform="matrix(1, 0, 0, 1, 0.084485, -0.968955)"/>
  <path d="M 28.727 29.494 C 29.086 29.644 29.465 29.713 29.874 29.713 C 31.659 29.713 32.896 28.236 32.896 26.782 C 32.896 26.373 32.816 25.963 32.657 25.605 C 32.497 25.245 32.277 24.937 31.999 24.677 C 31.719 24.418 31.4 24.219 31.041 24.069 C 30.682 23.919 30.293 23.849 29.884 23.849 C 29.475 23.849 29.086 23.919 28.727 24.069 C 28.368 24.219 28.049 24.418 27.77 24.677 C 27.491 24.937 27.271 25.245 27.112 25.605 C 26.952 25.963 26.872 26.352 26.872 26.782 C 26.872 27.21 26.952 27.599 27.112 27.959 C 27.271 28.317 27.491 28.627 27.77 28.886 C 28.049 29.145 28.368 29.345 28.727 29.494 Z M 32.128 26.792 C 32.128 26.795 32.128 26.798 32.128 26.801 L 32.128 26.782 C 32.128 26.785 32.128 26.788 32.128 26.792 Z M 31.948 25.963 C 32.067 26.22 32.127 26.496 32.128 26.792 C 32.127 27.087 32.067 27.362 31.948 27.619 C 31.829 27.878 31.67 28.108 31.47 28.298 C 31.27 28.487 31.031 28.637 30.752 28.746 C 30.472 28.856 30.173 28.916 29.854 28.916 C 29.535 28.916 29.236 28.866 28.957 28.756 C 28.678 28.646 28.438 28.497 28.239 28.308 C 28.039 28.118 27.88 27.888 27.76 27.63 C 27.64 27.37 27.58 27.091 27.58 26.792 C 27.58 26.492 27.64 26.213 27.76 25.954 C 27.88 25.694 28.039 25.465 28.239 25.276 C 28.438 25.086 28.678 24.937 28.957 24.827 C 29.236 24.717 29.535 24.667 29.854 24.667 C 30.173 24.667 30.472 24.727 30.752 24.837 C 31.031 24.947 31.27 25.096 31.47 25.285 C 31.67 25.475 31.829 25.704 31.948 25.963 Z" clip-rule="evenodd" fill-rule="evenodd" style="fill:#50287D;" transform="matrix(1, 0, 0, 1, 0.084485, -0.968955)"/>
  <path d="M 37.674 27.101 C 37.525 26.871 37.335 26.702 37.116 26.592 L 37.126 26.582 C 37.275 26.462 37.395 26.312 37.485 26.133 C 37.575 25.954 37.625 25.734 37.625 25.475 C 37.625 25.236 37.575 25.026 37.485 24.837 C 37.395 24.648 37.275 24.488 37.126 24.358 C 36.976 24.228 36.787 24.129 36.567 24.059 C 36.348 23.989 36.119 23.959 35.869 23.959 L 34.224 23.959 L 34.224 29.604 L 36.119 29.604 C 36.368 29.604 36.597 29.564 36.817 29.494 C 37.036 29.424 37.225 29.315 37.385 29.175 C 37.544 29.035 37.674 28.866 37.764 28.657 C 37.854 28.447 37.904 28.208 37.904 27.939 C 37.904 27.609 37.824 27.33 37.674 27.101 Z M 36.009 26.312 C 36.238 26.312 36.438 26.243 36.608 26.103 C 36.777 25.964 36.867 25.774 36.867 25.535 C 36.867 25.306 36.787 25.116 36.627 24.967 C 36.468 24.816 36.268 24.737 36.019 24.737 L 34.962 24.737 L 34.962 26.333 L 36.009 26.312 Z M 36.238 28.816 C 36.358 28.816 36.478 28.796 36.587 28.756 C 36.697 28.716 36.797 28.657 36.876 28.577 C 36.956 28.497 37.026 28.407 37.076 28.297 C 37.126 28.187 37.156 28.068 37.156 27.939 C 37.156 27.719 37.076 27.519 36.907 27.35 C 36.737 27.18 36.528 27.091 36.268 27.091 L 34.952 27.091 L 34.952 28.806 L 36.238 28.816 Z" clip-rule="evenodd" fill-rule="evenodd" style="fill:#50287D;" transform="matrix(1, 0, 0, 1, 0.084485, -0.968955)"/>
  <path d="M 39.471 29.604 L 40.009 28.288 L 42.812 28.288 L 43.341 29.604 L 44.138 29.604 L 41.815 23.959 L 40.997 23.959 L 38.673 29.604 L 39.471 29.604 Z M 41.406 24.906 L 42.483 27.509 L 40.328 27.509 L 41.406 24.906 Z" clip-rule="evenodd" fill-rule="evenodd" style="fill:#50287D;" transform="matrix(1, 0, 0, 1, 0.084485, -0.968955)"/>
  <path d="M 45.985 23.959 L 45.985 26.303 L 49.346 26.303 L 49.346 23.959 L 50.083 23.959 L 50.083 29.604 L 49.346 29.604 L 49.346 27.08 L 45.985 27.08 L 45.985 29.604 L 45.247 29.604 L 45.247 23.959 L 45.985 23.959 Z" style="fill:#50287D;" transform="matrix(1, 0, 0, 1, 0.084485, -0.968955)"/>
  <path d="M 56.019 29.604 L 56.019 25.126 L 52.688 29.604 L 51.86 29.604 L 51.86 23.959 L 52.598 23.959 L 52.598 28.447 L 55.949 23.959 L 56.757 23.959 L 56.757 29.604 L 56.019 29.604 Z" style="fill:#50287D;" transform="matrix(1, 0, 0, 1, 0.084485, -0.968955)"/>
  <path d="M 61.715 23.959 L 61.715 24.737 L 59.272 24.737 L 59.272 26.303 L 61.466 26.303 L 61.466 27.08 L 59.272 27.08 L 59.272 28.826 L 61.715 28.826 L 61.715 29.604 L 58.534 29.604 L 58.534 23.959 L 61.715 23.959 Z" style="fill:#50287D;" transform="matrix(1, 0, 0, 1, 0.084485, -0.968955)"/>
  <path d="M 95.714 18.314 L 98.299 18.314 L 98.299 15.728 L 95.714 15.728 L 95.714 18.314 Z" style="fill:#50287D;" transform="matrix(1, 0, 0, 1, 0.084485, -0.968955)"/>
  <path d="M 102.851 14.555 L 95.713 1.261 L 109.989 1.261 L 102.851 14.555 Z" style="fill:#D0DF00;" transform="matrix(1, 0, 0, 1, 0.084485, -0.968955)"/>
</svg>