<svg width="130" height="17" viewBox="0 0 130 17" fill="none" xmlns="http://www.w3.org/2000/svg">
<path d="M37.1938 16.995H40.7634V3.2839H45.2994V0.0042485H37.1938V16.995Z" fill="#990032"/>
<path d="M80.3294 3.2839H83.8944V16.995H87.4644V3.2839H91.0335V0.0042485H80.3294V3.2839Z" fill="#990032"/>
<path d="M0 0.00461085V17H3.48993V12.6822H8.03059L10.6575 10.2248V2.46205L8.14786 0.00461085H0ZM7.09244 9.40717H3.48993V3.28425H7.09244V9.40717Z" fill="#990032"/>
<path d="M15.2073 0.0042485L12.6977 2.46169V14.5422L15.2073 16.9996H21.507L24.0213 14.5422V2.46169L21.507 0.0042485H15.2073ZM20.447 13.7154H16.2627V3.2839H20.447V13.7154Z" fill="#990032"/>
<path d="M29.8471 3.2839H34.9085V0.0042485H28.787L26.2822 2.46169V14.5376L28.787 16.9996H34.9367V13.7154H29.8471V3.2839Z" fill="#990032"/>
<path d="M48.8918 0.0042485L46.3822 2.46169V14.5422L48.8918 16.9996H55.1915L57.7057 14.5422V2.46169L55.1915 0.0042485H48.8918ZM54.1361 13.7154H49.9519V3.2839H54.1361V13.7154Z" fill="#990032"/>
<path d="M92.8915 0.0042485V16.9996H96.381V12.6819H100.922L103.554 10.2244V2.46169L101.044 0.0042485H92.8915ZM99.9795 9.40683H96.3767V3.2839H99.9795V9.40683Z" fill="#990032"/>
<path d="M63.5355 3.2839H68.5921V0.0042485H62.4753L59.9658 2.46169V14.5376L62.4753 16.9996H68.6202V13.7154H63.5355V3.2839Z" fill="#990032"/>
<path d="M73.9078 3.2839H78.9645V0.0042485H72.8477L70.3381 2.46169V14.5376L72.8477 16.9996H78.9926V13.7154H73.9078V3.2839Z" fill="#990032"/>
<path d="M127.43 8.28604L129.967 0.0042485H126.389L124.461 6.42114H123.818L121.885 0.0042485H118.306L120.853 8.31819L118.273 16.995H121.801L123.85 10.2933H124.422L126.478 16.995H130L127.43 8.28604Z" fill="#990032"/>
<path d="M113.882 16.9953H117.475L113.897 0H107.799L104.219 16.9953H107.695L108.507 12.944H113.052L113.882 16.9953ZM109.164 9.75167L110.458 3.27965H111.139L112.433 9.75167H109.164Z" fill="#990032"/>
</svg>
