<svg viewBox="0 0 170 60" fill="none" xmlns="http://www.w3.org/2000/svg"><path d="M79.132 16.7825L81.1168 17.3912C80.8579 18.5216 80.3401 19.3042 79.6498 19.826 78.9594 20.3477 78.0965 20.6086 76.9746 20.6086 75.6802 20.6086 74.5584 20.1738 73.6954 19.2173 72.8325 18.3477 72.401 17.0434 72.401 15.4782 72.401 13.826 72.8325 12.5216 73.6954 11.5651 74.5584 10.6086 75.6802 10.1738 77.0609 10.1738 78.269 10.1738 79.3046 10.5216 79.9949 11.3043 80.4264 11.739 80.7716 12.3477 81.0305 13.1303L79.0457 13.6521C78.9594 13.1303 78.7005 12.6955 78.269 12.4347 77.8376 12.1738 77.4061 11.9999 76.8883 11.9999 76.1117 11.9999 75.5939 12.2608 75.0762 12.7825 74.6447 13.3043 74.3858 14.1738 74.3858 15.3912 74.3858 16.6956 74.6447 17.5651 75.0762 18.0869 75.5076 18.6086 76.1117 18.8695 76.802 18.8695 77.3198 18.8695 77.8376 18.6956 78.1828 18.3477 78.7005 17.9999 78.9594 17.4782 79.132 16.7825zM85.6041 20.4346V12.0868H82.67V10.3477H90.6091V12.0868H87.6751V20.4346H85.6041zM92.6802 20.4346V10.4346H95.8731C97.0812 10.4346 97.8579 10.5215 98.2893 10.6085 98.8934 10.7824 99.3249 11.0433 99.7563 11.565 100.188 12.0867 100.36 12.6954 100.36 13.478 100.36 14.0867 100.274 14.6085 100.015 15.0433 99.7564 15.478 99.4975 15.8259 99.1523 15.9998 98.8071 16.2607 98.4619 16.4346 98.1168 16.4346 97.599 16.5215 96.9086 16.6085 96.0457 16.6085H94.7513V20.4346H92.6802zM94.7513 12.0867V14.9563H95.8731C96.6497 14.9563 97.1675 14.8694 97.4264 14.7824 97.6853 14.6954 97.9442 14.5215 98.0305 14.2607 98.203 13.9998 98.2893 13.7389 98.2893 13.478 98.2893 13.1302 98.203 12.7824 97.9442 12.6085 97.7716 12.3476 97.4264 12.2607 97.1675 12.1737 96.9086 12.0867 96.4772 12.0867 95.7005 12.0867H94.7513zM110.629 20.4346H108.472L107.609 18.1737H103.553L102.69 20.4346H100.533L104.416 10.4346H106.574L110.629 20.4346zM106.919 16.4346L105.538 12.6954 104.157 16.4346H106.919zM111.492 20.4346L114.858 15.2172 111.751 10.4346H114.081L116.066 13.652 118.051 10.4346H120.381L117.274 15.3041 120.64 20.4346H118.223L115.98 16.9563 113.736 20.4346H111.492zM121.934 15.4782C121.934 14.4347 122.107 13.5651 122.365 12.8695 122.624 12.3477 122.883 11.913 123.315 11.4782 123.746 11.0434 124.178 10.7825 124.609 10.6086 125.213 10.3477 125.904 10.1738 126.767 10.1738 128.234 10.1738 129.442 10.6086 130.305 11.5651 131.168 12.5216 131.599 13.739 131.599 15.3912 131.599 17.0434 131.168 18.2608 130.305 19.2173 129.442 20.1738 128.234 20.6086 126.767 20.6086 125.3 20.6086 124.091 20.1738 123.228 19.2173 122.365 18.3477 121.934 17.1303 121.934 15.4782zM124.005 15.3912C124.005 16.5217 124.264 17.3912 124.782 17.9999 125.299 18.6086 125.99 18.8695 126.767 18.8695 127.543 18.8695 128.234 18.6086 128.751 17.9999 129.269 17.3912 129.528 16.5217 129.528 15.3912 129.528 14.2608 129.269 13.3912 128.751 12.7825 128.234 12.1738 127.543 11.913 126.767 11.913 125.904 11.913 125.299 12.1738 124.782 12.7825 124.264 13.3912 124.005 14.2608 124.005 15.3912zM134.015 10.4346H137.985C138.761 10.4346 139.366 10.4346 139.711 10.5215 140.056 10.6085 140.487 10.6954 140.746 10.9563 141.005 11.2172 141.264 11.4781 141.523 11.8259 141.782 12.1737 141.868 12.6085 141.868 13.0433 141.868 13.478 141.782 13.9128 141.523 14.3476 141.264 14.7824 140.919 15.0433 140.487 15.2172 141.091 15.3911 141.523 15.7389 141.868 16.0867 142.213 16.5215 142.386 17.0433 142.386 17.565 142.386 17.9998 142.3 18.4346 142.041 18.8694 141.782 19.3041 141.523 19.652 141.178 19.9128 140.833 20.1737 140.401 20.3476 139.797 20.3476 139.452 20.3476 138.675 20.4346 137.381 20.4346H134.015V10.4346zM136 12.0867V14.4346H137.294C138.071 14.4346 138.589 14.4346 138.761 14.4346 139.107 14.4346 139.366 14.2607 139.538 14.0868 139.711 13.9128 139.797 13.652 139.797 13.3041 139.797 12.9563 139.711 12.7824 139.538 12.5215 139.366 12.3476 139.107 12.1737 138.761 12.1737 138.589 12.1737 137.985 12.1737 137.036 12.1737H136V12.0867zM136 16.0867V18.7824H137.899C138.589 18.7824 139.107 18.7824 139.279 18.6954 139.538 18.6085 139.797 18.5215 139.97 18.2607 140.142 17.9998 140.228 17.7389 140.228 17.3911 140.228 17.1302 140.142 16.8694 139.97 16.6085 139.797 16.3476 139.624 16.2607 139.366 16.1737 139.107 16.0867 138.503 15.9998 137.553 15.9998H136V16.0867zM153.259 20.4346H151.015L150.152 18.1737H146.183L145.32 20.4346H143.249L147.132 10.4346H149.289L153.259 20.4346zM149.548 16.4346L148.168 12.6954 146.787 16.4346H149.548zM161.112 20.4347V16.2608H160.68C160.076 16.2608 159.558 16.3477 159.3 16.5216 159.041 16.6955 158.609 17.3042 158.005 18.2608L156.538 20.4347H154.122L155.33 18.4347C155.848 17.6521 156.193 17.1303 156.452 16.7825 156.711 16.4347 157.056 16.1738 157.487 15.9129 156.538 15.739 155.848 15.4782 155.503 14.9564 155.071 14.4347 154.899 13.826 154.899 13.1303 154.899 12.5216 155.071 11.9999 155.33 11.4782 155.675 11.0434 156.02 10.6955 156.538 10.5216 157.056 10.3477 157.746 10.2607 158.782 10.2607H163.01V20.2607H161.112V20.4347zM161.112 12.0868H159.558C158.782 12.0868 158.264 12.0868 158.005 12.1738 157.746 12.1738 157.574 12.3477 157.315 12.5216 157.056 12.6955 157.056 13.0434 157.056 13.3042 157.056 13.652 157.142 13.9129 157.315 14.1738 157.487 14.3477 157.746 14.5216 158.005 14.5216 158.264 14.5216 158.782 14.6086 159.645 14.6086H161.112V12.0868zM72.8325 40.7825H74.8173V45.0434C75.2487 44.9564 75.5939 44.8695 75.7665 44.6956 75.9391 44.5216 76.198 43.9999 76.5431 43.1304 76.9746 42.0869 77.4061 41.3912 77.8376 41.1303 78.269 40.8695 78.9594 40.6956 79.8223 40.6956 79.9086 40.6956 79.9949 40.6956 80.0812 40.6956V42.1738H79.8223C79.3909 42.1738 79.132 42.2608 78.9594 42.3478 78.7868 42.4347 78.6142 42.6086 78.5279 42.7825 78.4416 42.9564 78.269 43.3912 78.0102 44.0869 77.9239 44.4347 77.7513 44.6956 77.5787 44.9564 77.4061 45.2173 77.1472 45.3912 76.802 45.6521 77.2335 45.739 77.5787 45.9999 77.9239 46.4347 78.1827 46.7825 78.5279 47.3912 78.8731 48.0869L80.2538 50.8695H77.9239L76.7157 48.2608C76.7157 48.2608 76.6294 48.1738 76.6294 48.0869 76.6294 48.0869 76.5431 47.9129 76.3706 47.6521 76.1117 47.1303 75.9391 46.8695 75.7665 46.6956 75.5939 46.6086 75.335 46.5217 74.9898 46.5217V50.9564H73.0051V40.7825H72.8325zM82.5837 45.913C82.5837 44.8695 82.7563 43.9999 83.0152 43.3043 83.2741 42.7825 83.533 42.3478 83.9645 41.913 84.3959 41.4782 84.8274 41.2173 85.2589 41.0434 85.8629 40.7826 86.5533 40.6086 87.4162 40.6086 88.8832 40.6086 90.0914 41.0434 90.9543 41.9999 91.8172 42.9564 92.2487 44.1739 92.2487 45.826 92.2487 47.4782 91.8172 48.6956 90.9543 49.6521 90.0914 50.6086 88.8832 51.0434 87.4162 51.0434 85.9492 51.0434 84.7411 50.6086 83.8782 49.6521 83.0152 48.6956 82.5837 47.4782 82.5837 45.913zM84.6548 45.826C84.6548 46.9565 84.9137 47.826 85.4315 48.4347 85.9492 49.0434 86.6396 49.3043 87.4162 49.3043 88.1929 49.3043 88.8832 49.0434 89.401 48.4347 89.9188 47.826 90.1777 46.9565 90.1777 45.826 90.1777 44.6956 89.9188 43.826 89.401 43.2173 88.8832 42.6086 88.1929 42.3478 87.4162 42.3478 86.6396 42.3478 85.9492 42.6086 85.4315 43.2173 84.9137 43.826 84.6548 44.6956 84.6548 45.826zM95.5279 50.8696V40.8696H98.5482L100.36 47.7392 102.173 40.8696H105.193V50.8696H103.294V42.9566L101.31 50.8696H99.4112L97.4264 42.9566V50.8696H95.5279zM108.904 40.7825H116.843V50.7825H114.772V42.4346H110.888V50.7825H108.904V40.7825zM129.614 50.8696H127.457L126.594 48.6087H122.538L121.675 50.8696H119.518L123.401 40.8696H125.558L129.614 50.8696zM125.904 46.8696L124.523 43.1305 123.142 46.8696H125.904zM132.376 50.8696V40.8696H134.36V44.7827H138.33V40.8696H140.315V50.8696H138.33V46.5218H134.36V50.8696H132.376zM144.198 40.7825H146.096V47.4781L150.152 40.7825H152.137V50.7825H150.239V44.2607L146.183 50.7825H144.198V40.7825zM161.802 50.8695V46.6956H161.371C160.766 46.6956 160.249 46.7825 159.99 46.9564 159.731 47.1303 159.299 47.739 158.695 48.6956L157.228 50.8695H154.812L156.02 48.8695C156.538 48.0869 156.883 47.5651 157.142 47.2173 157.401 46.8695 157.746 46.6086 158.178 46.3477 157.228 46.1738 156.538 45.913 156.193 45.3912 155.761 44.8695 155.589 44.2608 155.589 43.5651 155.589 42.9564 155.761 42.4347 156.02 41.913 156.365 41.4782 156.711 41.1304 157.228 40.9564 157.746 40.7825 158.437 40.6956 159.472 40.6956H163.701V50.6956H161.802V50.8695zM161.802 42.5216H160.249C159.472 42.5216 158.954 42.5217 158.695 42.6086 158.437 42.6086 158.264 42.7825 158.005 42.9564 157.746 43.1303 157.746 43.4782 157.746 43.739 157.746 44.0869 157.832 44.3477 158.005 44.6086 158.178 44.7825 158.437 44.9564 158.695 44.9564 158.954 44.9564 159.472 45.0434 160.335 45.0434H161.802V42.5216z" fill="#345352"/><path d="M59.6294 0.347656H56.0051V59.8259H59.6294V0.347656Z" fill="url(#paint0_linear)"/><path d="M50.3096 0.173828H46.6853V59.6521H50.3096V0.173828Z" fill="url(#paint1_linear)"/><path d="M40.9035 0.173828H37.2792V59.6521H40.9035V0.173828Z" fill="url(#paint2_linear)"/><path d="M32.1878 0.173828H28.5634V59.6521H32.1878V0.173828Z" fill="url(#paint3_linear)"/><path d="M22.7817 0.173828H19.1573V59.6521H22.7817V0.173828Z" fill="url(#paint4_linear)"/><path d="M13.6345 0.173828H10.0101V59.6521H13.6345V0.173828Z" fill="url(#paint5_linear)"/><path d="M4.22841 0.347656H0.60405V59.8259H4.22841V0.347656Z" fill="url(#paint6_linear)"/><path d="M9.66497 26.0869V35.4782H6.64466V28.6956H3.71066V35.4782H0.690353V26.0869H9.66497ZM20.2792 35.5652H17.2589L20.6244 26.0869H23.731L27.0964 35.4782H24.0761L23.731 34.2608H20.6244L20.2792 35.5652ZM23.1269 32.3478L22.1777 28.8695L21.2284 32.3478H23.1269ZM37.4518 35.5652H34.4315V26.0869H38.9188C40.2132 26.0869 41.2487 26.3478 41.9391 26.8695C42.6294 27.4782 42.8883 28.1739 42.8883 29.2174C42.8883 30.2608 42.6294 31.0434 42.0254 31.5652C41.335 32.2608 40.3858 32.4347 39.0051 32.4347H37.4518V35.5652ZM37.4518 30.3478H38.7462C39.1777 30.3478 39.4365 30.2608 39.6091 30.0869C39.868 29.913 39.9543 29.6521 39.9543 29.3043C39.9543 28.8695 39.7817 28.6086 39.3503 28.5217C39.0914 28.3478 38.7462 28.3478 38.3147 28.3478H37.4518V30.3478ZM53.5025 31.1304L56.6954 26.1739H59.5431V35.5652H56.6091V30.6087L53.4162 35.5652H50.4822V26.0869H53.4162L53.5025 31.1304Z" fill="#345352"/><defs><linearGradient id="paint0_linear" x1="57.817" y1=".348" x2="57.817" y2="59.826" gradientUnits="userSpaceOnUse"><stop stop-color="#345352"/><stop offset=".184" stop-color="#345352"/><stop offset=".373" stop-color="#fff"/><stop offset=".67" stop-color="#fff"/><stop offset=".8" stop-color="#345352"/><stop offset="1" stop-color="#345352"/></linearGradient><linearGradient id="paint1_linear" x1="48.498" y1=".174" x2="48.498" y2="59.652" gradientUnits="userSpaceOnUse"><stop stop-color="#345352"/><stop offset=".184" stop-color="#345352"/><stop offset=".373" stop-color="#fff"/><stop offset=".67" stop-color="#fff"/><stop offset=".8" stop-color="#345352"/><stop offset="1" stop-color="#345352"/></linearGradient><linearGradient id="paint2_linear" x1="39.091" y1=".174" x2="39.091" y2="59.652" gradientUnits="userSpaceOnUse"><stop stop-color="#345352"/><stop offset=".184" stop-color="#345352"/><stop offset=".373" stop-color="#fff"/><stop offset=".67" stop-color="#fff"/><stop offset=".8" stop-color="#345352"/><stop offset="1" stop-color="#345352"/></linearGradient><linearGradient id="paint3_linear" x1="30.376" y1=".174" x2="30.376" y2="59.652" gradientUnits="userSpaceOnUse"><stop stop-color="#345352"/><stop offset=".184" stop-color="#345352"/><stop offset=".373" stop-color="#fff"/><stop offset=".67" stop-color="#fff"/><stop offset=".8" stop-color="#345352"/><stop offset="1" stop-color="#345352"/></linearGradient><linearGradient id="paint4_linear" x1="20.97" y1=".174" x2="20.97" y2="59.652" gradientUnits="userSpaceOnUse"><stop stop-color="#345352"/><stop offset=".184" stop-color="#345352"/><stop offset=".373" stop-color="#fff"/><stop offset=".67" stop-color="#fff"/><stop offset=".8" stop-color="#345352"/><stop offset="1" stop-color="#345352"/></linearGradient><linearGradient id="paint5_linear" x1="11.822" y1=".174" x2="11.822" y2="59.652" gradientUnits="userSpaceOnUse"><stop stop-color="#345352"/><stop offset=".184" stop-color="#345352"/><stop offset=".373" stop-color="#fff"/><stop offset=".67" stop-color="#fff"/><stop offset=".8" stop-color="#345352"/><stop offset="1" stop-color="#345352"/></linearGradient><linearGradient id="paint6_linear" x1="2.416" y1=".348" x2="2.416" y2="59.826" gradientUnits="userSpaceOnUse"><stop stop-color="#345352"/><stop offset=".184" stop-color="#345352"/><stop offset=".373" stop-color="#fff"/><stop offset=".67" stop-color="#fff"/><stop offset=".8" stop-color="#345352"/><stop offset="1" stop-color="#345352"/></linearGradient></defs></svg>