<?xml version="1.0" encoding="utf-8"?>
<svg viewBox="0.299 0.127 109.952 29.662" xmlns="http://www.w3.org/2000/svg">
  <path d="M 37.802 14.985 L 34.451 20.441 L 34.451 14.985 L 28.399 14.985 L 28.399 30.142 L 34.451 30.142 L 34.451 24.383 L 37.628 30.142 L 44.588 30.142 L 39.294 22.173 L 44.438 14.985 L 37.802 14.985 Z" style="fill:#2E6EB4;" transform="matrix(1, 0, 0, 1, 0.084485, -0.968955)"/>
  <path d="M 26.871 29.667 C 25.92 30.164 24.622 30.597 22.807 30.597 C 17.879 30.597 14.377 27.415 14.377 22.564 C 14.377 17.065 18.873 14.531 22.721 14.531 C 23.953 14.531 25.66 14.834 26.871 15.679 L 26.871 20.984 C 25.942 19.836 24.579 19.381 23.521 19.381 C 21.272 19.381 20.192 20.875 20.192 22.716 C 20.192 24.643 21.596 25.747 23.498 25.747 C 24.839 25.747 26.006 25.141 26.871 24.362 L 26.871 29.667 Z" style="fill:#2E6EB4;" transform="matrix(1, 0, 0, 1, 0.084485, -0.968955)"/>
  <path d="M 0.215 14.888 L 0.215 30.045 L 9.163 30.045 C 13.356 30.045 14.264 27.36 14.264 25.823 C 14.264 23.765 12.859 22.272 10.914 21.948 L 10.914 21.904 C 12.167 21.537 13.551 20.453 13.551 18.742 C 13.551 17.574 13.097 14.888 8.752 14.888 L 0.215 14.888 Z M 6.267 26.409 L 6.267 24.134 L 7.001 24.134 C 7.585 24.134 8.514 24.242 8.514 25.259 C 8.514 26.32 7.564 26.409 7.001 26.409 L 6.267 26.409 Z M 6.267 18.526 L 6.267 20.648 L 6.828 20.648 C 7.888 20.648 8.169 20.106 8.169 19.587 C 8.169 19.068 7.888 18.526 6.828 18.526 L 6.267 18.526 Z" clip-rule="evenodd" fill-rule="evenodd" style="fill:#2E6EB4;" transform="matrix(1, 0, 0, 1, 0.084485, -0.968955)"/>
  <path d="M 79.956 16.914 L 78.232 16.982 L 78.071 16.566 L 76.412 16.451 L 76.4 16.149 L 74.617 16.123 L 74.911 16.751 L 75.706 16.841 L 75.608 16.636 L 76.329 17.11 L 77.526 17.374 L 78.321 17.4 L 80.324 17.14 L 79.956 16.914 Z" style="fill:#6EB7E4;" transform="matrix(1, 0, 0, 1, 0.084485, -0.968955)"/>
  <path d="M 75.554 15.445 L 74.739 15.337 C 74.739 15.337 74.761 15.062 74.444 14.907 C 74.125 14.753 74.196 14.895 74.196 14.895 L 73.886 14.673 L 73.316 14.577 L 73.268 14.158 L 72.529 14.123 L 72.547 13.916 L 71.966 13.847 L 71.722 13.631 L 71.799 13.392 L 71.654 13.176 L 70.961 12.855 L 70.38 12.629 L 69.996 12.199 L 69.542 11.811 L 68.953 11.249 L 67.488 10.748 L 66.099 9.745 L 65.535 9.51 L 64.938 9.224 L 63.674 8.557 L 61.811 7.54 L 57.692 5.584 L 56.518 5.073 C 55.851 4.789 55.744 4.639 55.728 4.555 C 55.125 4.417 54.924 4.315 54.609 4.005 C 54.288 4.018 53.577 3.618 53.381 3.43 C 53.381 3.421 52.168 3.073 52.091 3.005 C 52.089 2.934 48.942 1.847 48.554 1.756 C 48.28 1.734 47.519 1.595 47.415 1.547 C 47.287 1.548 46.802 1.4 46.607 1.38 C 45.952 1.306 45.327 1.207 44.653 1.198 C 44.171 1.191 43.896 1.197 43.473 1.096 C 43.323 1.187 42.339 1.015 41.986 1.268 C 41.591 1.284 40.691 1.479 40.442 1.597 C 39.903 1.618 38.986 2.195 38.677 2.344 C 38.522 2.416 38.358 2.493 38.196 2.571 C 39.18 2.91 40.296 3.312 40.298 3.354 C 40.377 3.423 41.589 3.769 41.589 3.778 C 41.784 3.966 42.496 4.366 42.816 4.355 C 43.131 4.664 43.332 4.766 43.935 4.904 C 43.951 4.99 44.059 5.139 44.725 5.423 L 45.9 5.932 L 50.019 7.889 L 51.882 8.906 L 53.146 9.573 L 53.743 9.859 L 54.307 10.094 L 54.768 10.427 L 55.676 10.773 L 57.723 11.425 L 60.196 12.367 L 61.119 12.676 L 62.048 12.956 L 62.485 12.878 L 62.966 13.04 L 63.501 13.508 L 64.045 13.332 L 64.414 13.394 L 64.705 13.769 L 64.898 13.993 L 65.363 14.128 L 65.825 14.186 L 66.372 14.089 L 67.017 14.139 L 67.243 14.516 L 68.141 14.669 L 68.785 14.717 L 69.43 14.766 L 69.926 14.99 L 70.378 15.472 L 71.025 15.6 L 72.7 15.839 L 74.215 15.661 L 75.201 15.706 L 75.554 15.445 Z" style="fill:#6EB7E4;" transform="matrix(1, 0, 0, 1, 0.084485, -0.968955)"/>
  <path d="M 61.975 17.843 L 63.759 17.868 L 63.77 18.17 L 65.43 18.285 L 65.591 18.701 L 67.315 18.632 L 67.685 18.859 L 65.681 19.121 L 64.885 19.092 L 63.69 18.831 L 62.968 18.355 L 63.065 18.561 L 62.271 18.471 L 61.975 17.843 Z" style="fill:#2E6EB4;" transform="matrix(1, 0, 0, 1, 0.084485, -0.968955)"/>
  <path d="M 62.162 17.127 C 62.162 17.127 62.185 16.851 61.867 16.696 C 61.549 16.542 61.62 16.683 61.62 16.683 L 61.31 16.461 L 60.739 16.365 L 60.693 15.945 L 59.953 15.911 L 59.97 15.704 L 59.39 15.635 L 59.145 15.421 L 59.224 15.182 L 59.077 14.965 L 58.385 14.643 L 57.803 14.418 L 57.419 13.989 L 56.964 13.599 L 56.377 13.037 L 54.913 12.536 L 53.523 11.535 L 52.959 11.3 L 52.362 11.012 L 51.098 10.345 L 49.236 9.328 L 45.116 7.372 L 43.94 6.861 C 43.275 6.578 43.167 6.429 43.151 6.343 C 42.548 6.206 42.347 6.103 42.032 5.794 C 41.712 5.807 41 5.406 40.806 5.219 C 40.805 5.21 39.593 4.863 39.514 4.794 C 39.511 4.725 36.365 3.636 35.978 3.544 C 35.703 3.523 34.942 3.384 34.838 3.337 C 34.71 3.338 34.227 3.19 34.031 3.169 C 33.377 3.095 32.751 2.994 32.076 2.986 C 31.594 2.979 31.32 2.984 30.896 2.884 C 30.747 2.975 29.762 2.802 29.41 3.057 C 29.016 3.072 28.115 3.268 27.865 3.386 C 27.327 3.407 26.409 3.985 26.101 4.131 C 25.829 4.261 25.52 4.392 25.267 4.546 C 25.147 4.638 23.424 5.472 23.309 5.575 C 23.336 5.634 21.623 6.627 21.461 6.775 C 21.39 6.851 20.934 7.034 20.82 7.139 C 20.697 7.248 20.243 7.651 20.089 7.725 C 20.02 7.865 19.584 8.02 19.514 8.159 C 19.409 8.301 18.89 8.544 18.806 8.641 C 18.795 8.652 18.506 8.883 18.274 9.068 L 17.985 9.441 C 17.874 9.484 17.413 9.743 17.294 9.83 C 17.306 10.097 17.325 10.521 16.894 10.44 C 16.883 10.431 16.4 10.741 16.389 10.732 C 16.451 10.729 16.123 11.2 15.851 11.533 C 15.69 11.725 14.949 11.988 14.805 12.186 C 14.509 12.589 14.127 12.961 13.831 13.354 C 13.831 13.365 13.832 13.374 13.832 13.385 C 13.845 13.384 13.856 13.384 13.868 13.384 C 13.871 13.436 14.153 13.429 14.194 13.538 C 14.251 13.692 14.076 13.831 14.033 13.97 C 14.044 13.97 14.056 13.97 14.068 13.969 C 14.069 13.98 14.069 13.99 14.07 14 C 14.297 13.991 14.523 13.759 14.706 13.662 C 14.859 13.604 15.013 13.545 15.167 13.488 C 15.439 13.33 15.712 13.171 15.984 13.014 C 18.025 11.931 20.063 10.848 22.103 9.767 C 23.08 9.256 23.856 8.776 24.933 8.194 C 25.19 8.056 26.171 7.412 26.912 7.365 C 27.848 7.303 28.975 7.536 29.275 7.662 C 29.564 7.761 30.273 8.112 30.63 8.196 C 30.741 8.236 30.944 8.381 30.993 8.379 C 31.027 8.428 31.701 8.53 32.055 8.656 C 32.178 8.728 32.298 8.799 32.419 8.87 C 33.005 9.037 34.461 9.371 34.988 9.53 C 35.436 9.663 35.701 9.908 35.923 9.956 C 36.231 10.164 36.292 10.058 36.67 10.235 C 37.234 10.292 37.581 10.49 37.599 10.506 C 37.774 10.576 37.892 10.65 38.067 10.719 C 38.214 10.739 38.493 10.948 38.603 11.002 C 38.734 11.028 39.653 11.302 39.745 11.347 C 39.896 11.332 40.547 11.608 40.628 11.676 C 40.813 11.76 41.02 11.806 41.228 11.848 L 43.1 12.562 L 45.147 13.214 L 47.619 14.156 L 48.542 14.464 L 49.472 14.745 L 49.908 14.666 L 50.391 14.827 L 50.925 15.296 L 51.468 15.12 L 51.838 15.184 L 52.13 15.557 L 52.322 15.781 L 52.787 15.917 L 53.248 15.976 L 53.796 15.876 L 54.441 15.929 L 54.667 16.305 L 55.564 16.457 L 56.209 16.506 L 56.853 16.554 L 57.351 16.779 L 57.8 17.26 L 58.448 17.388 L 60.124 17.627 L 61.638 17.449 L 62.626 17.496 L 62.978 17.235 L 62.162 17.127 Z" style="fill:#2E6EB4;" transform="matrix(1, 0, 0, 1, 0.084485, -0.968955)"/>
  <path d="M 49.633 29.524 C 49.342 29.673 48.957 29.801 48.435 29.801 C 47.583 29.801 47.069 29.518 46.66 29.141 C 46.101 28.617 45.883 28.028 45.883 27.335 C 45.883 26.476 46.246 25.858 46.66 25.483 C 47.147 25.036 47.751 24.859 48.441 24.859 C 48.783 24.859 49.189 24.917 49.633 25.15 L 49.633 26.227 C 49.189 25.732 48.638 25.696 48.462 25.696 C 47.489 25.696 46.857 26.476 46.857 27.348 C 46.857 28.396 47.686 28.964 48.499 28.964 C 48.949 28.964 49.349 28.773 49.633 28.446 L 49.633 29.524 Z" style="fill:#2E6EB4;" transform="matrix(1, 0, 0, 1, 0.084485, -0.968955)"/>
  <path d="M 52.395 29.694 L 51.449 29.694 L 51.449 25.761 L 50.36 25.761 L 50.36 24.967 L 53.485 24.967 L 53.485 25.761 L 52.395 25.761 L 52.395 29.694 Z" style="fill:#2E6EB4;" transform="matrix(1, 0, 0, 1, 0.084485, -0.968955)"/>
  <path d="M 54.442 29.694 L 54.442 24.967 L 55.854 24.967 C 56.397 24.967 56.777 25.022 57.132 25.327 C 57.524 25.667 57.626 26.13 57.626 26.469 C 57.626 26.653 57.597 27.163 57.225 27.526 C 56.957 27.788 56.558 27.944 55.999 27.944 L 55.388 27.944 L 55.388 29.694 L 54.442 29.694 Z M 55.715 25.761 L 55.388 25.761 L 55.388 27.149 L 55.773 27.149 C 55.955 27.149 56.187 27.149 56.391 27.001 C 56.565 26.867 56.652 26.653 56.652 26.447 C 56.652 26.185 56.521 26.008 56.383 25.908 C 56.187 25.774 55.939 25.761 55.715 25.761 Z" clip-rule="evenodd" fill-rule="evenodd" style="fill:#2E6EB4;" transform="matrix(1, 0, 0, 1, 0.084485, -0.968955)"/>
  <path d="M 62.691 29.694 L 61.674 29.694 L 61.244 28.702 L 59.289 28.702 L 58.862 29.694 L 57.837 29.694 L 59.936 24.867 L 60.648 24.867 L 62.691 29.694 Z M 60.286 26.25 L 59.588 27.95 L 60.968 27.95 L 60.286 26.25 Z" clip-rule="evenodd" fill-rule="evenodd" style="fill:#2E6EB4;" transform="matrix(1, 0, 0, 1, 0.084485, -0.968955)"/>
  <path d="M 64.843 27.199 L 63.396 24.967 L 64.53 24.967 L 65.38 26.433 L 66.274 24.967 L 67.408 24.967 L 65.917 27.199 L 67.576 29.694 L 66.441 29.694 L 65.38 27.965 L 64.261 29.694 L 63.127 29.694 L 64.843 27.199 Z" style="fill:#2E6EB4;" transform="matrix(1, 0, 0, 1, 0.084485, -0.968955)"/>
  <path d="M 68.403 27.335 C 68.403 25.895 69.464 24.859 70.989 24.859 C 72.515 24.859 73.576 25.895 73.576 27.335 C 73.576 28.773 72.515 29.801 70.989 29.801 C 69.464 29.801 68.403 28.773 68.403 27.335 Z M 69.376 27.335 C 69.376 28.292 70.045 28.964 70.989 28.964 C 71.934 28.964 72.603 28.292 72.603 27.335 C 72.603 26.376 71.934 25.696 70.989 25.696 C 70.045 25.696 69.376 26.376 69.376 27.335 Z" clip-rule="evenodd" fill-rule="evenodd" style="fill:#2E6EB4;" transform="matrix(1, 0, 0, 1, 0.084485, -0.968955)"/>
  <path d="M 74.813 24.967 L 74.813 29.694 L 76.44 29.694 C 76.862 29.694 77.304 29.624 77.668 29.312 C 78.003 29.021 78.082 28.631 78.082 28.355 C 78.082 28.107 78.024 27.738 77.734 27.469 C 77.611 27.355 77.422 27.221 77.101 27.171 C 77.232 27.1 77.646 26.851 77.646 26.243 C 77.646 25.845 77.48 25.476 77.196 25.264 C 76.804 24.967 76.28 24.967 76.012 24.967 L 74.813 24.967 Z M 75.757 27.639 L 76.106 27.639 C 76.309 27.639 76.55 27.639 76.753 27.731 C 77.058 27.865 77.109 28.12 77.109 28.269 C 77.109 28.454 77.044 28.681 76.811 28.815 C 76.601 28.936 76.339 28.944 76.165 28.944 L 75.757 28.944 L 75.757 27.639 Z M 76.033 25.717 L 75.757 25.717 L 75.757 26.93 L 76.026 26.93 C 76.171 26.93 76.761 26.915 76.761 26.312 C 76.761 25.881 76.419 25.717 76.033 25.717 Z" clip-rule="evenodd" fill-rule="evenodd" style="fill:#2E6EB4;" transform="matrix(1, 0, 0, 1, 0.084485, -0.968955)"/>
  <path d="M 79.085 27.335 C 79.085 25.895 80.147 24.859 81.673 24.859 C 83.2 24.859 84.261 25.895 84.261 27.335 C 84.261 28.773 83.2 29.801 81.673 29.801 C 80.147 29.801 79.085 28.773 79.085 27.335 Z M 80.06 27.335 C 80.06 28.292 80.729 28.964 81.673 28.964 C 82.617 28.964 83.285 28.292 83.285 27.335 C 83.285 26.376 82.617 25.696 81.673 25.696 C 80.729 25.696 80.06 26.376 80.06 27.335 Z" clip-rule="evenodd" fill-rule="evenodd" style="fill:#2E6EB4;" transform="matrix(1, 0, 0, 1, 0.084485, -0.968955)"/>
  <path d="M 87.632 23.866 C 87.539 23.866 87.131 23.853 86.978 23.455 L 86.325 23.711 C 86.513 24.192 86.964 24.504 87.632 24.504 C 88.301 24.504 88.751 24.192 88.94 23.711 L 88.287 23.455 C 88.133 23.853 87.726 23.866 87.632 23.866 Z M 86.44 28.143 L 86.44 24.967 L 85.496 24.967 L 85.496 29.788 L 86.149 29.788 L 88.825 26.504 L 88.825 29.694 L 89.769 29.694 L 89.769 24.859 L 89.115 24.859 L 86.44 28.143 Z" clip-rule="evenodd" fill-rule="evenodd" style="fill:#2E6EB4;" transform="matrix(1, 0, 0, 1, 0.084485, -0.968955)"/>
  <path d="M 93.758 27.021 L 93.758 24.967 L 97.028 24.967 L 97.028 28.901 L 97.536 28.901 L 97.536 30.758 L 96.664 30.758 L 96.664 29.694 L 93.685 29.694 L 93.685 30.758 L 92.813 30.758 L 92.813 28.901 C 93.161 28.915 93.437 28.617 93.583 28.263 C 93.678 28.028 93.758 27.674 93.758 27.021 Z M 96.083 25.761 L 94.674 25.761 L 94.674 27.021 C 94.674 27.751 94.594 28.115 94.506 28.341 C 94.404 28.603 94.265 28.773 94.128 28.901 L 96.083 28.901 L 96.083 25.761 Z" clip-rule="evenodd" fill-rule="evenodd" style="fill:#2E6EB4;" transform="matrix(1, 0, 0, 1, 0.084485, -0.968955)"/>
  <path d="M 98.291 27.335 C 98.291 25.895 99.352 24.859 100.879 24.859 C 102.405 24.859 103.466 25.895 103.466 27.335 C 103.466 28.773 102.405 29.801 100.879 29.801 C 99.352 29.801 98.291 28.773 98.291 27.335 Z M 99.265 27.335 C 99.265 28.292 99.935 28.964 100.879 28.964 C 101.825 28.964 102.491 28.292 102.491 27.335 C 102.491 26.376 101.825 25.696 100.879 25.696 C 99.935 25.696 99.265 26.376 99.265 27.335 Z" clip-rule="evenodd" fill-rule="evenodd" style="fill:#2E6EB4;" transform="matrix(1, 0, 0, 1, 0.084485, -0.968955)"/>
  <path d="M 104.454 29.694 L 105.355 24.881 L 106.009 24.881 L 107.326 27.973 L 108.699 24.881 L 109.353 24.881 L 110.167 29.694 L 109.207 29.694 L 108.772 26.781 L 107.441 29.758 L 107.18 29.758 L 105.907 26.781 L 105.414 29.694 L 104.454 29.694 Z" style="fill:#2E6EB4;" transform="matrix(1, 0, 0, 1, 0.084485, -0.968955)"/>
</svg>