<?xml version="1.0" encoding="utf-8"?>
<svg viewBox="0.162 0.227 110 38.273" xmlns="http://www.w3.org/2000/svg">
  <defs>
    <clipPath id="clip0">
      <rect x="0" y="0" width="110" height="38.2737" transform="translate(0, 1)" style="fill:white;"/>
    </clipPath>
  </defs>
  <g clip-path="url(#clip0)" transform="matrix(1, 0, 0, 1, 0.161845, -0.773255)">
    <path d="M108.518 9.22149 C108.633 9.22149 108.792 9.25392 108.902 9.40674 L108.942 9.46391 L109.213 9.26272 L109.176 9.20775 C109.037 9.00491 108.798 8.88837 108.522 8.88837 C108.03 8.88837 107.672 9.24568 107.672 9.73822 C107.672 10.2308 108.029 10.5881 108.522 10.5881 C108.8 10.5881 109.038 10.4704 109.176 10.2648 L109.213 10.2093 L108.942 10.0142 L108.902 10.0702 C108.792 10.2231 108.633 10.2549 108.518 10.2549 C108.228 10.2549 108.024 10.0422 108.024 9.73822 C108.024 9.43423 108.227 9.22149 108.518 9.22149 z" style="fill:#19194E;"/>
    <path d="M108.501 8.23584 C107.656 8.23584 106.994 8.89604 106.994 9.73875 C106.994 10.582 107.652 11.2422 108.493 11.2422 C109.338 11.2422 110 10.5782 110 9.73051 C110 8.87845 109.356 8.23584 108.501 8.23584 z M109.628 9.73106 C109.628 10.372 109.13 10.8739 108.493 10.8739 C107.859 10.8739 107.362 10.3753 107.362 9.73875 C107.362 9.09119 107.852 8.60305 108.5 8.60305 C109.144 8.60305 109.628 9.08789 109.628 9.73106 z" style="fill:#19194E;"/>
    <path d="M78.4438 19.6682 C78.4438 18.367 78.391 17.0626 78.4641 15.7658 C78.5059 15.0303 78.219 14.8659 77.5764 14.8775 C76.732 14.8923 76.4698 14.5861 76.5456 13.7874 C76.5852 13.3735 76.7672 13.1371 77.219 13.075 C79.076 12.8193 79.5317 12.3884 79.8494 10.515 C79.9599 9.86409 80.2117 9.45236 80.9115 9.41278 C81.614 9.37265 81.918 9.64971 81.9213 10.3528 C81.9246 11.0377 81.9383 11.7232 81.9152 12.4071 C81.9031 12.7644 82.0252 12.8881 82.3841 12.8804 C83.71 12.8523 85.0381 12.8853 86.3624 12.8221 C87.7185 12.7578 88.0511 12.4477 88.4139 11.1455 C88.487 10.8827 88.5398 10.6134 88.5948 10.3456 C88.7569 9.55021 89.5815 9.17366 90.3066 9.55571 C90.604 9.71237 90.6243 9.97019 90.6232 10.2533 C90.6199 10.9608 90.6408 11.6693 90.615 12.3763 C90.6007 12.7649 90.7331 12.8892 91.1218 12.8826 C92.3114 12.8617 93.5015 12.8683 94.6916 12.8782 C95.398 12.8842 95.6492 13.1723 95.6316 13.91 C95.6151 14.6246 95.3799 14.8813 94.7048 14.8852 C93.5147 14.8918 92.3246 14.9 91.135 14.8797 C90.7584 14.8731 90.6089 14.9676 90.6144 15.3722 C90.6468 17.9273 90.6177 20.484 90.687 23.0379 C90.7386 24.9322 91.6055 25.4446 93.3976 24.7508 C93.6307 24.6607 93.8594 24.554 94.0781 24.4331 C94.4256 24.2401 94.6927 24.3666 94.9313 24.6211 C95.1896 24.8976 95.2743 25.1851 95.0484 25.5435 C94.2601 26.7941 93.0243 27.18 91.6583 27.3031 C90.9948 27.3631 90.3297 27.302 89.6799 27.1591 C88.0626 26.804 87.1908 25.6491 87.1518 23.647 C87.1001 20.9771 87.1083 18.3055 87.1325 15.635 C87.1375 15.0671 86.9638 14.8725 86.4119 14.8808 C85.0623 14.9005 83.7117 14.894 82.3616 14.8813 C82.0466 14.8786 81.9097 14.9616 81.918 15.3018 C81.979 17.9701 81.8069 20.6417 82.0252 23.3078 C82.051 23.6223 82.1274 23.9389 82.2253 24.2396 C82.3913 24.7492 82.748 25.002 83.3065 25.0092 C84.0135 25.018 84.6632 24.8454 85.2641 24.4908 C85.6687 24.2517 86.004 24.3188 86.2926 24.6656 C86.5669 24.9949 86.5196 25.3104 86.2821 25.6601 C85.4669 26.8612 84.2339 27.1893 82.8992 27.3048 C82.2808 27.3581 81.6624 27.2943 81.056 27.1734 C79.4663 26.8562 78.5592 25.6793 78.4685 23.846 C78.457 23.6179 78.4454 23.3897 78.4449 23.1622 C78.4427 21.9968 78.4438 20.8325 78.4438 19.6682 z" style="fill:#19194E;"/>
    <path d="M58.7284 14.6076 C57.634 14.4597 56.6555 14.4927 55.672 14.5026 C54.1928 14.5174 53.316 15.2216 52.9603 16.6113 C52.8113 17.1923 52.4463 17.3897 51.8972 17.3204 C51.4695 17.266 51.2408 17.0329 51.3161 16.5712 C51.4706 15.6245 51.5651 14.6713 51.5668 13.7132 C51.5679 13.0986 51.8664 12.8694 52.4573 12.871 C55.6594 12.8804 58.8609 12.8661 62.063 12.8815 C62.992 12.8859 63.2333 13.357 62.7567 14.1794 C61.212 16.8433 59.4134 19.3439 57.734 21.9209 C57.1249 22.8554 56.5829 23.8339 55.976 24.7701 C55.6792 25.2275 55.8446 25.3522 56.2949 25.3709 C57.391 25.4155 58.4833 25.4473 59.5794 25.3127 C60.476 25.2027 61.0466 24.7487 61.3489 23.9219 C61.466 23.6014 61.6073 23.2864 61.6892 22.9571 C61.8458 22.3255 62.3054 22.2898 62.8089 22.3673 C63.3521 22.4509 63.4114 22.8412 63.3367 23.2941 C63.1767 24.2622 63.0547 25.2341 63.0827 26.2191 C63.0992 26.7947 62.7957 27.0377 62.235 27.0371 C58.8961 27.0327 55.5571 27.041 52.2176 27.0311 C51.3326 27.0283 51.0611 26.5671 51.4865 25.7865 C52.5887 23.7619 53.9031 21.8709 55.1938 19.9645 C56.2547 18.3978 57.2981 16.8196 58.3469 15.2452 C58.4701 15.0594 58.5756 14.8637 58.7284 14.6076 z" style="fill:#19194E;"/>
    <path d="M31.7212 1.02419 C33.3907 1.02419 35.0596 1.02034 36.7291 1.02529 C37.8499 1.02858 38.4271 1.5761 38.431 2.69861 C38.4436 6.09802 38.437 9.49689 38.431 12.8963 C38.4304 13.0585 38.5305 13.2839 38.2803 13.3636 C38.0742 13.429 37.9511 13.2877 37.8169 13.153 C34.2872 9.61123 30.7553 6.07164 27.2201 2.53534 C26.898 2.21266 26.5605 1.90427 26.2169 1.60468 C26.0663 1.4733 25.9509 1.33752 26.0245 1.13908 C26.1004 0.933484 26.2977 1.02913 26.4385 1.02858 C28.1997 1.02199 29.9605 1.02419 31.7212 1.02419 z" style="fill:#19194E;"/>
    <path d="M31.6844 39.25 C29.9473 39.25 28.2102 39.2539 26.4726 39.244 C26.3181 39.2429 26.0856 39.3693 26.0135 39.1038 C25.9569 38.896 26.1103 38.7844 26.2455 38.6508 C29.8538 35.0926 33.4577 31.5304 37.0589 27.965 C37.3497 27.677 37.6185 27.3653 37.8846 27.0536 C38.0105 26.9063 38.1633 26.892 38.3155 26.9398 C38.4881 26.9931 38.4326 27.1646 38.4326 27.2905 C38.4343 30.7795 38.4475 34.2685 38.4205 37.7576 C38.4134 38.7152 37.7983 39.2445 36.8269 39.2484 C35.1135 39.2555 33.3989 39.25 31.6844 39.25 z" style="fill:#19194E;"/>
    <path d="M6.78064 39.25 C5.06554 39.25 3.35044 39.2544 1.63534 39.2483 C0.580445 39.2445 0.0296341 38.6997 0.027985 37.6476 C0.0230376 34.2482 0.0235873 30.8488 0.0329324 27.4493 C0.0334821 27.2745 -0.107244 27.0156 0.186852 26.9288 C0.430923 26.8567 0.545813 27.0563 0.689288 27.2036 C4.44327 31.0703 8.29949 34.8353 12.1513 38.6035 C12.3063 38.7552 12.4691 38.8844 12.3937 39.1159 C12.3118 39.3676 12.0821 39.2423 11.9254 39.2428 C10.2108 39.2538 8.49574 39.25 6.78064 39.25 z" style="fill:#19194E;"/>
    <path d="M0.0262712 7.63775 C0.0262712 5.97157 0.0218735 4.30594 0.0279203 2.63977 C0.0317683 1.59697 0.593024 1.02802 1.63308 1.02637 C5.06438 1.02087 8.49568 1.02252 11.927 1.03076 C12.0831 1.03131 12.3134 0.905979 12.3948 1.15885 C12.4695 1.39082 12.3063 1.51946 12.1513 1.67118 C8.29723 5.4411 4.45365 9.22091 0.684276 13.0749 C0.54245 13.2201 0.432508 13.4361 0.188436 13.3652 C-0.100712 13.2811 0.0334174 13.0194 0.032318 12.8408 C0.0218735 11.1064 0.0262712 9.37209 0.0262712 7.63775 z" style="fill:#19194E;"/>
    <path d="M34.8644 14.4377 C31.5095 11.1009 28.1662 7.75264 24.7981 4.42963 C21.7323 1.40512 16.7998 1.36059 13.717 4.37026 C10.2494 7.75539 6.81482 11.174 3.40881 14.6207 C0.363957 17.7013 0.378799 22.6163 3.41376 25.665 C6.83241 29.099 10.2648 32.5204 13.723 35.9149 C16.7124 38.8493 21.6675 38.8921 24.6513 35.9814 C28.153 32.5661 31.6074 29.1018 35.0562 25.6331 C36.5559 24.1241 37.2776 22.2639 37.2936 20.0816 C37.2688 17.902 36.4459 16.0099 34.8644 14.4377 z M26.124 28.9951 C23.835 28.9968 21.5471 28.9957 19.2592 28.9957 C16.9713 28.9957 14.6828 28.9764 12.3949 29.0078 C11.7584 29.0166 11.6001 28.8005 11.5621 28.1816 C11.4978 27.1322 11.8419 26.3224 12.4884 25.5045 C15.094 22.209 17.6408 18.8673 20.203 15.5377 C20.3454 15.3524 20.6406 15.1726 20.4746 14.9005 C20.3438 14.6862 20.0519 14.7895 19.832 14.7884 C18.0014 14.7823 16.1709 14.7692 14.3404 14.7939 C13.7659 14.8016 13.4581 14.5921 13.2987 14.0402 C13.0903 13.3185 12.821 12.6148 12.573 11.9046 C12.4263 11.4846 12.4994 11.2702 13.015 11.2713 C17.3852 11.2829 21.756 11.2823 26.1262 11.2719 C26.6446 11.2708 26.7754 11.5165 26.8172 11.981 C26.9189 13.1068 26.6033 14.0287 25.8843 14.9385 C23.3221 18.1801 20.8369 21.4828 18.3258 24.7646 C18.1922 24.9394 17.9322 25.1087 18.0487 25.3467 C18.1647 25.5825 18.4594 25.4841 18.6776 25.4852 C20.7599 25.4907 22.8422 25.5061 24.924 25.4781 C25.5545 25.4698 25.8931 25.6897 26.0542 26.3054 C26.2207 26.9431 26.4763 27.5571 26.6858 28.1843 C26.9502 28.977 26.9376 28.9946 26.124 28.9951 z" style="fill:#009BA5;"/>
    <path d="M109.398 24.9251 C109.098 24.4991 108.748 24.554 108.323 24.7723 C107.423 25.2351 107.053 25.0196 107.026 24.0065 C106.995 22.8659 107.018 21.7241 107.018 20.5829 C107.016 20.5829 107.012 20.5829 107.009 20.584 C107.009 19.511 107.039 18.4368 107.002 17.3654 C106.948 15.8224 106.657 14.3585 105.273 13.3855 C103.077 11.8408 99.0257 12.091 97.0638 13.9199 C96.1842 14.7395 95.668 15.735 96.0308 16.9834 C96.3227 17.9877 97.4354 18.4429 98.4804 18.0163 C99.4446 17.6227 99.7639 16.7597 99.2654 15.79 C99.007 15.2875 99.1351 14.9181 99.5391 14.5949 C100.935 13.4784 102.963 14.2019 103.353 15.94 C103.526 16.7091 103.449 17.4847 103.491 18.2571 C103.511 18.6309 103.367 18.7045 103.024 18.7095 C102.431 18.7183 101.835 18.7645 101.247 18.8414 C99.6705 19.0481 98.1406 19.4005 96.8846 20.4658 C95.6032 21.5526 95.1629 23.4244 95.784 25.0949 C96.3046 26.4951 97.5689 27.28 99.3121 27.3103 C100.841 27.3367 102.258 26.9953 103.507 26.085 C103.704 25.9415 103.846 25.8118 104.045 26.1031 C105.199 27.7973 107.762 27.6593 109.235 26.0179 C109.55 25.6672 109.686 25.3352 109.398 24.9251 z M102.322 24.5881 C101.987 24.7206 101.629 24.8173 101.273 24.8723 C100.549 24.9828 99.842 24.9883 99.4231 24.2192 C99.0092 23.4601 99.112 22.431 99.6985 21.7983 C100.653 20.7693 101.954 20.5906 103.247 20.4026 C103.514 20.3641 103.479 20.5488 103.481 20.6983 C103.487 21.1766 103.483 21.6554 103.483 22.1342 C103.484 22.3849 103.484 22.6355 103.484 22.8862 C103.484 24.0087 103.387 24.1681 102.322 24.5881 z" style="fill:#19194E;"/>
    <path d="M75.1291 23.8861 C74.4096 24.4556 73.5603 24.5854 72.6939 24.6854 C69.731 25.0284 68.0747 23.8773 67.5387 21.0876 C67.4662 20.7088 67.4656 20.3169 67.4134 19.9337 C67.3546 19.5044 67.5382 19.3906 67.9521 19.3983 C69.2098 19.4219 70.4676 19.4065 71.7253 19.4065 C73.0287 19.406 74.3326 19.3988 75.6354 19.4098 C76.2247 19.4142 76.5507 19.1421 76.5611 18.5611 C76.5941 16.7234 76.0625 15.0908 74.6635 13.8358 C72.5273 11.9189 69.0075 11.8568 66.5525 13.7044 C63.9244 15.6822 63.2779 18.4193 63.7265 21.5042 C64.13 24.2764 65.6153 26.2065 68.3759 26.9997 C69.8244 27.4158 71.3108 27.4021 72.7912 27.1399 C74.2056 26.8892 75.3287 26.1597 76.1961 25.0262 C76.4803 24.6552 76.4248 24.2935 76.1203 23.9785 C75.83 23.6783 75.4546 23.6289 75.1291 23.8861 z M67.5222 17.2231 C67.6899 16.4678 67.8152 15.7059 68.3347 15.0836 C69.0702 14.2019 70.4544 13.8627 71.4406 14.3344 C72.4026 14.7939 73.1447 16.3188 72.9325 17.3374 C72.8693 17.642 72.7082 17.6793 72.4542 17.6766 C71.6791 17.6678 70.9035 17.6728 70.1279 17.6728 C69.3978 17.6728 68.6673 17.659 67.9378 17.6788 C67.5876 17.6881 67.4348 17.6183 67.5222 17.2231 z" style="fill:#19194E;"/>
  </g>
</svg>