<svg width="24" height="24" viewBox="0 0 24 24" fill="none" xmlns="http://www.w3.org/2000/svg">
<g opacity="0.5">
<path fill-rule="evenodd" clip-rule="evenodd" d="M15 4H9C6.239 4 4 6.239 4 9V15C4 17.761 6.239 20 9 20H15C17.761 20 20 17.761 20 15V9C20 6.239 17.761 4 15 4ZM12 8C9.791 8 8 9.791 8 12C8 14.209 9.791 16 12 16C14.209 16 16 14.209 16 12C16 9.791 14.209 8 12 8ZM12 14.5C10.622 14.5 9.5 13.378 9.5 12C9.5 10.621 10.622 9.5 12 9.5C13.378 9.5 14.5 10.621 14.5 12C14.5 13.378 13.378 14.5 12 14.5ZM17 7C17 7.55229 16.5523 8 16 8C15.4477 8 15 7.55229 15 7C15 6.44772 15.4477 6 16 6C16.5523 6 17 6.44772 17 7Z" fill="white"/>
</g>
</svg>
