<svg width="24" height="24" viewBox="0 0 24 24" fill="none" xmlns="http://www.w3.org/2000/svg">
<g opacity="0.5">
<path d="M13.7307 15.6269L16.1218 17.9352C16.6116 18.4071 16.6116 19.1734 16.1218 19.6457C15.6324 20.1181 14.8393 20.1181 14.3505 19.6457L11.9996 17.3774L9.65069 19.6457C9.40577 19.8817 9.08484 19.9998 8.76391 19.9998C8.44349 19.9998 8.12307 19.8817 7.87815 19.6457C7.38882 19.1734 7.38882 18.4076 7.87764 17.9352L10.269 15.6269C9.39835 15.4354 8.55866 15.1024 7.78525 14.634C7.19995 14.2778 7.02413 13.5315 7.39292 12.966C7.76068 12.3998 8.53409 12.2293 9.12041 12.5855C10.8715 13.6488 13.1272 13.649 14.8792 12.5855C15.4656 12.2293 16.2387 12.3998 16.6073 12.966C16.976 13.531 16.7997 14.2778 16.2144 14.634C15.441 15.1029 14.6013 15.4354 13.7307 15.6269Z" fill="white"/>
<path fill-rule="evenodd" clip-rule="evenodd" d="M7.71185 8.12906C7.71185 10.4053 9.63027 12.2569 11.9891 12.2569C14.3485 12.2569 16.2664 10.4053 16.2664 8.12906C16.2664 5.85207 14.3485 4 11.9891 4C9.63027 4 7.71185 5.85207 7.71185 8.12906ZM13.7601 8.1291C13.7601 7.18638 12.9657 6.41981 11.9891 6.41981C11.0132 6.41981 10.2181 7.18638 10.2181 8.1291C10.2181 9.07107 11.0132 9.83813 11.9891 9.83813C12.9657 9.83813 13.7601 9.07107 13.7601 8.1291Z" fill="white"/>
</g>
</svg>
