<svg width="24" height="24" viewBox="0 0 24 24" fill="none" xmlns="http://www.w3.org/2000/svg">
<path d="M4.24166 11.5382C5.8785 10.6366 7.70567 9.8841 9.41287 9.12775C12.3499 7.88891 15.2987 6.67154 18.2772 5.53819C18.8567 5.34508 19.8979 5.15627 20 6.01503C19.9441 7.23065 19.7141 8.43915 19.5564 9.64765C19.156 12.3053 18.6932 14.9538 18.2419 17.6026C18.0864 18.4849 16.9811 18.9417 16.2739 18.377C14.5743 17.229 12.8616 16.0921 11.1837 14.9175C10.634 14.359 11.1437 13.5569 11.6346 13.1581C13.0345 11.7785 14.519 10.6064 15.8457 9.15558C16.2036 8.2914 15.1462 9.0197 14.7974 9.24287C12.881 10.5635 11.0115 11.9648 8.99097 13.1254C7.95889 13.6936 6.75599 13.2081 5.72439 12.891C4.79944 12.5081 3.44402 12.1222 4.24156 11.5383L4.24166 11.5382Z" fill="white"/>
</svg>
