<svg width="24" height="24" viewBox="0 0 24 24" fill="none" xmlns="http://www.w3.org/2000/svg">
<g opacity="0.5">
<path fill-rule="evenodd" clip-rule="evenodd" d="M21.0529 7.13036C21.1938 6.68766 21.0529 6.3657 20.4291 6.3657H18.3565C17.8333 6.3657 17.5918 6.64742 17.451 6.94925C17.451 6.94925 16.3845 9.52493 14.8954 11.1951C14.4125 11.678 14.1911 11.839 13.9295 11.839C13.7887 11.839 13.6076 11.678 13.6076 11.2353V7.11023C13.6076 6.58705 13.4466 6.34558 13.0039 6.34558H9.74408C9.42212 6.34558 9.2209 6.58705 9.2209 6.82852C9.2209 7.33158 9.96543 7.45232 10.0459 8.86089V11.9195C10.0459 12.5835 9.92518 12.7043 9.66359 12.7043C8.95931 12.7043 7.2489 10.1085 6.22265 7.15048C6.02143 6.56693 5.8202 6.34558 5.29702 6.34558H3.20429C2.60061 6.34558 2.5 6.62729 2.5 6.92913C2.5 7.47244 3.20429 10.2091 5.77996 13.8311C7.49037 16.3062 9.92518 17.6343 12.1185 17.6343C13.4466 17.6343 13.6076 17.3324 13.6076 16.8294V14.958C13.6076 14.3543 13.7283 14.2537 14.1509 14.2537C14.4527 14.2537 14.996 14.4147 16.2235 15.6019C17.6321 17.0105 17.8735 17.6544 18.6583 17.6544H20.7309C21.3346 17.6544 21.6163 17.3526 21.4553 16.769C21.2742 16.1855 20.5901 15.3403 19.7047 14.3342C19.2218 13.7708 18.4973 13.147 18.276 12.8451C17.9742 12.4427 18.0547 12.2817 18.276 11.9195C18.2559 11.9195 20.7913 8.3377 21.0529 7.13036Z" fill="white"/>
</g>
</svg>
