<svg width="40" height="37" viewBox="0 0 40 37" fill="none" xmlns="http://www.w3.org/2000/svg">
<g clip-path="url(#clip0_20_2254)">
<mask id="mask0_20_2254" style="mask-type:luminance" maskUnits="userSpaceOnUse" x="0" y="0" width="40" height="37">
<path d="M40 0.142853H0V36.4286H40V0.142853Z" fill="white"/>
</mask>
<g mask="url(#mask0_20_2254)">
<path fill-rule="evenodd" clip-rule="evenodd" d="M14.9616 6.47117L6.28206 0.142853V17.4908L20 27.4958L33.7231 17.4908V0.142853L25.0437 6.47117L20 2.79446L14.9616 6.47117Z" fill="#006FFF"/>
<path fill-rule="evenodd" clip-rule="evenodd" d="M33.7231 15.5923L20 25.592V27.4957L33.7231 17.4907V15.5923Z" fill="#0050FB"/>
<path fill-rule="evenodd" clip-rule="evenodd" d="M6.28206 0.142853L20 10.1426V27.4958L6.28206 17.4908V0.142853Z" fill="#011AFD"/>
<path fill-rule="evenodd" clip-rule="evenodd" d="M6.28206 15.5923L20 25.592V27.4957L6.28206 17.4907V15.5923Z" fill="#0607D3"/>
<path fill-rule="evenodd" clip-rule="evenodd" d="M23.7364 5.51929L18.7087 9.2012L20 10.1426L25.0437 6.47114L23.7364 5.51929Z" fill="#0050FB"/>
<path fill-rule="evenodd" clip-rule="evenodd" d="M29.1083 9.38428L27.1394 10.8225V16.4448L29.1083 15.0117V9.38428ZM26.6314 11.1886L24.6573 12.6269V18.2543L26.6314 16.8161V11.1886Z" fill="white"/>
<path fill-rule="evenodd" clip-rule="evenodd" d="M11.1299 9.54114L15.1521 12.4699V22.0565L11.1299 19.1225V9.54114Z" fill="white"/>
<path d="M40 12.9197L33.7231 17.6634L20.0847 27.6056L20 27.6631L19.9206 27.6056L6.28209 17.6634L0 12.9197L6.28209 17.3234L20 27.3232L33.7231 17.3234L40 12.9197Z" fill="#0607D3"/>
<path fill-rule="evenodd" clip-rule="evenodd" d="M0.195816 36.3869H0.725055V32.2709L3.18074 35.4871L5.64171 32.2497V36.3869H6.23446V31.5229H5.56231L3.22837 34.6191L0.915592 31.5229H0.195816V36.4077V36.3869ZM7.77983 36.3869H11.6433V35.8637H8.42551V34.1903H11.2199V33.6671H8.42551V32.046H11.6433V31.5229H7.77983V36.4077V36.3869ZM14.2313 36.3869H14.8505V32.004H16.8563V31.4811H12.2255V32.004H14.2313V36.3869ZM17.7983 36.3869H18.4176V34.7131H19.8783L21.6724 36.3869H22.4927L20.6404 34.7131H20.6721C20.9034 34.7429 21.1384 34.7234 21.3613 34.6557C21.5842 34.588 21.7898 34.4737 21.9643 34.3209C22.1387 34.168 22.2779 33.98 22.3725 33.7691C22.4671 33.5586 22.5149 33.3303 22.5126 33.1C22.5103 32.8694 22.458 32.6423 22.3593 32.4334C22.2605 32.2249 22.1175 32.0394 21.9401 31.89C21.7626 31.7403 21.5548 31.6303 21.3305 31.5669C21.1063 31.5037 20.871 31.4886 20.6404 31.5229H17.8037V36.4077L17.7983 36.3869ZM18.4176 34.1954V32.046H20.6404C20.7877 32.0431 20.9342 32.0691 21.0714 32.1223C21.2086 32.1754 21.3338 32.2549 21.44 32.3557C21.5462 32.4569 21.6311 32.5774 21.6901 32.7109C21.749 32.8446 21.7808 32.988 21.7835 33.1337C21.7828 33.2771 21.7535 33.4191 21.6973 33.5517C21.6411 33.684 21.559 33.804 21.4558 33.9051C21.3526 34.006 21.2303 34.086 21.0958 34.1403C20.9613 34.1946 20.8174 34.2223 20.6721 34.2214L18.4176 34.1954Z" fill="#011AFD"/>
<path fill-rule="evenodd" clip-rule="evenodd" d="M24.4033 34.504C24.4081 34.7734 24.4689 35.0389 24.5819 35.2843C24.6949 35.5294 24.8576 35.7491 25.0601 35.9294C25.2626 36.11 25.5004 36.2474 25.7589 36.3331C26.0173 36.4191 26.2909 36.4514 26.5626 36.4286C27.0671 36.4217 27.5619 36.2903 28.0021 36.0469V35.5237C27.5782 35.7977 27.0848 35.948 26.5785 35.958C26.3789 35.9697 26.1789 35.9411 25.991 35.8737C25.803 35.8066 25.6309 35.702 25.4854 35.5666C25.3398 35.4311 25.2239 35.2677 25.1446 35.0863C25.0653 34.9049 25.0244 34.7094 25.0244 34.5117C25.0244 34.3143 25.0653 34.1189 25.1446 33.9374C25.2239 33.756 25.3398 33.5926 25.4854 33.4571C25.6309 33.3217 25.803 33.2171 25.991 33.1497C26.1789 33.0826 26.3789 33.0537 26.5785 33.0657C27.0879 33.0769 27.5843 33.2271 28.0127 33.4997V32.9769C27.5715 32.7357 27.0773 32.6046 26.5731 32.5951C26.301 32.572 26.0271 32.6046 25.7682 32.6909C25.5094 32.7769 25.2713 32.9149 25.0688 33.096C24.8662 33.2769 24.7035 33.4971 24.5909 33.7431C24.4782 33.9889 24.4179 34.2551 24.4139 34.5249L24.4033 34.504ZM23.6623 36.4077C23.7311 36.4077 23.7971 36.3806 23.8457 36.3326C23.8943 36.2846 23.9217 36.2194 23.9217 36.1514C23.9217 36.082 23.8938 36.0154 23.8441 35.9666C23.7945 35.9174 23.7272 35.89 23.657 35.89C23.5869 35.89 23.5195 35.9174 23.4699 35.9666C23.4203 36.0154 23.3924 36.082 23.3924 36.1514C23.3924 36.2194 23.4197 36.2846 23.4684 36.3326C23.517 36.3806 23.583 36.4077 23.6517 36.4077H23.6623ZM29.1877 36.4077H29.7963V31.3137H29.1877V36.4077ZM31.1457 35.2206C31.1923 35.5851 31.3809 35.9174 31.6714 36.1471C31.962 36.3766 32.3314 36.4851 32.7017 36.4494C33.1346 36.44 33.5626 36.3569 33.9666 36.2037L33.9983 36.4077H34.5646V32.6369H33.956V35.7069C33.55 35.8589 33.1203 35.9403 32.686 35.9474C32.574 35.9583 32.4609 35.9469 32.3531 35.9143C32.2457 35.8817 32.1457 35.8286 32.0591 35.7574C31.9726 35.6866 31.9011 35.5991 31.8489 35.5009C31.7963 35.4023 31.7643 35.2946 31.7543 35.1837V32.6003H31.1457V35.1837V35.2206ZM35.9566 36.0729C36.048 36.0677 36.1397 36.0803 36.2266 36.1094C36.7066 36.3274 37.2277 36.4431 37.756 36.4494C38.2857 36.4623 38.7989 36.2666 39.1829 35.9057C39.5669 35.5449 39.7903 35.0483 39.8043 34.5249C39.8126 34.2626 39.7657 34.0014 39.6669 33.758C39.568 33.5146 39.4191 33.294 39.2297 33.1103C39.0403 32.9263 38.8143 32.7834 38.5663 32.6903C38.318 32.5971 38.0529 32.5557 37.7877 32.5689C37.3703 32.578 36.9571 32.6557 36.5651 32.7989V31.23H35.9566V36.0626V36.0729ZM36.5651 35.7226V33.3011C36.9574 33.1603 37.3706 33.0843 37.7877 33.0763C37.9771 33.0726 38.1651 33.1071 38.3403 33.178C38.5157 33.2489 38.6743 33.3543 38.8069 33.488C38.9391 33.6217 39.0423 33.7809 39.1103 33.9557C39.178 34.1303 39.2089 34.3171 39.2009 34.504C39.2009 34.6911 39.1634 34.8766 39.0909 35.0494C39.018 35.2226 38.9117 35.3794 38.7774 35.5117C38.6431 35.644 38.4837 35.7486 38.3086 35.8197C38.1331 35.8909 37.9454 35.9271 37.756 35.9266C37.3491 35.918 36.9466 35.842 36.5651 35.7017V35.7226Z" fill="#006FFF"/>
</g>
</g>
<defs>
<clipPath id="clip0_20_2254">
<rect width="40" height="36.5714" fill="white"/>
</clipPath>
</defs>
</svg>
